<svg xmlns="http://www.w3.org/2000/svg" width="2220" height="632" viewBox="0 0 2220 632" version="1.1"><path d="M 1811.500 39.044 C 1801.376 40.612, 1787.959 44.829, 1778.169 49.520 C 1741.496 67.095, 1716.265 101.681, 1710.908 141.719 C 1707.684 165.810, 1712.976 193.696, 1724.813 215 C 1727.479 219.797, 1823.209 349.049, 1828.011 354.335 C 1828.713 355.107, 1850.553 326.756, 1907.858 250.685 C 1931.720 219.008, 1937.493 209.588, 1942.291 194.500 C 1947.090 179.410, 1947.503 176.365, 1947.443 156.500 C 1947.390 139.183, 1947.151 136.631, 1944.734 127.687 C 1932.550 82.587, 1897.782 49.696, 1852 39.961 C 1844.830 38.437, 1819.176 37.856, 1811.500 39.044 M 1815.500 51.076 C 1774.682 56.646, 1741.729 85.112, 1729.346 125.500 C 1726.735 134.014, 1726.587 135.552, 1726.587 154 C 1726.587 172.480, 1726.732 173.971, 1729.359 182.500 C 1740.325 218.097, 1766.548 243.769, 1802.616 254.216 C 1809.634 256.249, 1812.588 256.494, 1829.500 256.449 C 1847.303 256.400, 1849.067 256.224, 1857.500 253.646 C 1893.785 242.554, 1920.118 215.406, 1929.709 179.206 C 1931.943 170.774, 1932.280 167.465, 1932.280 154 C 1932.280 140.508, 1931.945 137.234, 1929.691 128.723 C 1917.806 83.848, 1879.388 52.553, 1833.793 50.604 C 1827.582 50.338, 1819.350 50.551, 1815.500 51.076 M 1811 58.432 C 1802.372 60.242, 1793.021 63.456, 1785.851 67.075 L 1780 70.029 1780 153.969 L 1780 237.909 1787.250 241.343 C 1836.130 264.495, 1894.050 243.730, 1916.951 194.844 C 1923.818 180.184, 1925.511 171.924, 1925.427 153.500 C 1925.342 135.156, 1923.821 127.815, 1917.159 113.597 C 1907 91.919, 1891.081 76, 1869.403 65.841 C 1856.441 59.767, 1847.722 57.830, 1831.500 57.421 C 1822.219 57.187, 1815.309 57.527, 1811 58.432 M 1848.608 113.052 C 1850.046 117.894, 1850.028 118.294, 1848.320 119.525 C 1842.100 124.009, 1842.120 123.934, 1847.170 123.968 L 1851.839 124 1853.585 129.250 L 1855.332 134.500 1856.916 129.500 C 1858.464 124.615, 1858.603 124.489, 1862.989 124 L 1867.478 123.500 1864.018 120.802 C 1860.602 118.137, 1860.573 118.051, 1861.705 113.811 C 1862.335 111.450, 1862.689 109.356, 1862.491 109.158 C 1862.293 108.960, 1860.537 110.014, 1858.588 111.501 L 1855.045 114.203 1851.060 111.048 L 1847.076 107.892 1848.608 113.052 M 1817.400 117.836 C 1811.498 122.128, 1806.075 128.615, 1803.157 134.875 C 1800.830 139.865, 1800.532 141.745, 1800.517 151.521 C 1800.501 161.939, 1800.677 162.901, 1803.734 169.110 C 1819.269 200.668, 1865.142 200.793, 1880.619 169.319 C 1883.424 163.616, 1885.740 151.337, 1884.569 148.381 C 1883.971 146.872, 1883.436 147.527, 1881.861 151.698 C 1879.067 159.099, 1872.236 166.266, 1864.209 170.218 C 1858.263 173.145, 1856.634 173.497, 1849.024 173.498 C 1841.560 173.500, 1839.692 173.115, 1834 170.405 C 1821.631 164.517, 1814.154 153.958, 1813.244 141.094 C 1812.674 133.043, 1813.898 128.212, 1818.404 120.730 C 1820.301 117.579, 1821.729 115, 1821.577 115 C 1821.425 115, 1819.545 116.276, 1817.400 117.836 M 719 369.500 L 719 437 730 437 L 741 437 741 434.541 C 741 433.188, 741.513 428.632, 742.140 424.415 L 743.281 416.748 745.810 422.070 C 751.545 434.137, 760.812 439.498, 774.818 438.850 C 797.400 437.806, 812 418.036, 812 388.500 C 812 358.964, 797.400 339.194, 774.818 338.150 C 761.374 337.528, 751.873 342.593, 746.588 353.199 L 744 358.393 744 330.196 L 744 302 731.500 302 L 719 302 719 369.500 M 942 369.500 L 942 437 954.449 437 L 966.899 437 967.199 404.250 C 967.483 373.330, 967.615 371.304, 969.551 368 C 972.834 362.398, 979.045 359.549, 988.002 359.537 C 996.793 359.525, 1001.243 361.552, 1004.465 367.035 C 1006.383 370.301, 1006.517 372.407, 1006.800 403.750 L 1007.100 437 1019.550 437 L 1032 437 1032 400.816 C 1032 360.433, 1031.603 357.257, 1025.506 348.857 C 1023.169 345.637, 1020.352 343.338, 1016.318 341.357 C 1010.989 338.740, 1009.575 338.500, 999.500 338.500 C 990.025 338.500, 987.849 338.821, 983.805 340.813 C 977.982 343.681, 971.847 349.712, 969.092 355.276 L 967.002 359.500 967.001 330.750 L 967 302 954.500 302 L 942 302 942 369.500 M 1055 315 L 1055 328 1069 328 L 1083 328 1083 315 L 1083 302 1069 302 L 1055 302 1055 315 M 1564 369.500 L 1564 437 1576.449 437 L 1588.899 437 1589.199 404.250 C 1589.483 373.330, 1589.615 371.304, 1591.551 368 C 1594.834 362.398, 1601.045 359.549, 1610.002 359.537 C 1618.793 359.525, 1623.243 361.552, 1626.465 367.035 C 1628.383 370.301, 1628.517 372.407, 1628.800 403.750 L 1629.100 437 1641.550 437 L 1654 437 1654 400.816 C 1654 360.433, 1653.603 357.257, 1647.506 348.857 C 1645.169 345.637, 1642.352 343.338, 1638.318 341.357 C 1632.989 338.740, 1631.575 338.500, 1621.500 338.500 C 1612.025 338.500, 1609.849 338.821, 1605.805 340.813 C 1599.982 343.681, 1593.847 349.712, 1591.092 355.276 L 1589.002 359.500 1589.001 330.750 L 1589 302 1576.500 302 L 1564 302 1564 369.500 M 2015 369.500 L 2015 437 2027.500 437 L 2040 437 2040.011 424.250 L 2040.022 411.500 2044.932 406 C 2049.393 401.004, 2049.964 400.657, 2051.171 402.214 C 2051.902 403.157, 2058.350 411.354, 2065.500 420.429 L 2078.500 436.930 2093.809 436.965 C 2102.229 436.984, 2108.909 436.661, 2108.653 436.247 C 2108.397 435.833, 2098.905 423.815, 2087.560 409.539 L 2066.933 383.584 2087.708 362.792 L 2108.482 342 2092.830 342 L 2077.177 342 2058.839 361.346 L 2040.500 380.693 2040.239 341.346 L 2039.977 302 2027.489 302 L 2015 302 2015 369.500 M 501 315.500 L 501 327 523.500 327 L 546 327 546 382 L 546 437 558.500 437 L 571 437 571 382 L 571 327 593.500 327 L 616 327 616 315.500 L 616 304 558.500 304 L 501 304 501 315.500 M 1107 370.480 L 1107 437 1118.492 437 L 1129.983 437 1130.242 381.444 L 1130.500 325.888 1153 381.437 L 1175.500 436.986 1195.750 436.993 L 1216 437 1216 370.500 L 1216 304 1204.509 304 L 1193.017 304 1192.759 358.714 L 1192.500 413.428 1170.427 358.964 L 1148.354 304.500 1127.677 304.230 L 1107 303.959 1107 370.480 M 633 339.814 C 617.732 343.805, 607.651 354.297, 606.275 367.628 L 605.720 373 618.136 373 L 630.552 373 632.526 368.750 C 634.964 363.501, 639.485 360.396, 645.991 359.501 C 659.432 357.653, 667.268 363.021, 668.693 375.054 L 669.279 380 651.245 380 C 627.800 380, 622.404 381.427, 614.016 389.844 C 607.268 396.615, 605.488 401.616, 606.217 411.763 C 607.015 422.889, 612.535 430.662, 622.949 435.327 C 629.470 438.248, 643.029 438.816, 650.108 436.464 C 656.905 434.206, 665.272 426.161, 667.073 420.150 C 667.757 417.868, 668.610 416, 668.969 416 C 669.329 416, 670.671 420.725, 671.953 426.500 L 674.284 437 684.142 437 L 694 437 694 401.682 C 694 362.464, 693.641 359.629, 687.683 351.794 C 683.424 346.193, 675.455 341.491, 666.937 339.554 C 657.878 337.493, 641.395 337.620, 633 339.814 M 856 339.814 C 840.732 343.805, 830.651 354.297, 829.275 367.628 L 828.720 373 841.136 373 L 853.552 373 855.526 368.750 C 857.964 363.501, 862.485 360.396, 868.991 359.501 C 882.432 357.653, 890.268 363.021, 891.693 375.054 L 892.279 380 874.245 380 C 850.800 380, 845.404 381.427, 837.016 389.844 C 830.268 396.615, 828.488 401.616, 829.217 411.763 C 830.015 422.889, 835.535 430.662, 845.949 435.327 C 852.470 438.248, 866.029 438.816, 873.108 436.464 C 879.905 434.206, 888.272 426.161, 890.073 420.150 C 890.757 417.868, 891.610 416, 891.969 416 C 892.329 416, 893.671 420.725, 894.953 426.500 L 897.284 437 907.142 437 L 917 437 917 401.682 C 917 362.464, 916.641 359.629, 910.683 351.794 C 906.424 346.193, 898.455 341.491, 889.937 339.554 C 880.878 337.493, 864.395 337.620, 856 339.814 M 1264 339.814 C 1248.732 343.805, 1238.651 354.297, 1237.275 367.628 L 1236.720 373 1249.136 373 L 1261.552 373 1263.526 368.750 C 1265.964 363.501, 1270.485 360.396, 1276.991 359.501 C 1290.432 357.653, 1298.268 363.021, 1299.693 375.054 L 1300.279 380 1282.245 380 C 1258.800 380, 1253.404 381.427, 1245.016 389.844 C 1238.268 396.615, 1236.488 401.616, 1237.217 411.763 C 1238.015 422.889, 1243.535 430.662, 1253.949 435.327 C 1260.470 438.248, 1274.029 438.816, 1281.108 436.464 C 1287.905 434.206, 1296.272 426.161, 1298.073 420.150 C 1298.757 417.868, 1299.610 416, 1299.969 416 C 1300.329 416, 1301.671 420.725, 1302.953 426.500 L 1305.284 437 1315.142 437 L 1325 437 1325 401.682 C 1325 362.464, 1324.641 359.629, 1318.683 351.794 C 1314.424 346.193, 1306.455 341.491, 1297.937 339.554 C 1288.878 337.493, 1272.395 337.620, 1264 339.814 M 1372.879 339.666 C 1362.026 343.290, 1352.823 353.704, 1348.329 367.448 C 1346.033 374.470, 1345.696 377.164, 1345.696 388.500 C 1345.696 399.836, 1346.033 402.530, 1348.329 409.552 C 1354.803 429.352, 1368.461 439.745, 1386.786 438.818 C 1398.691 438.216, 1406.778 433.086, 1411.792 422.957 L 1413.998 418.500 1413.999 447.250 L 1414 476 1426.500 476 L 1439 476 1439 409 L 1439 342 1428.129 342 L 1417.258 342 1416.558 349.104 C 1416.173 353.012, 1415.522 357.117, 1415.112 358.227 C 1414.480 359.935, 1414.092 359.529, 1412.588 355.592 C 1410.126 349.145, 1402.694 341.765, 1396.556 339.674 C 1390.443 337.591, 1379.106 337.587, 1372.879 339.666 M 1484 339.814 C 1467.759 344.059, 1460.144 353.035, 1460.044 368.054 C 1459.934 384.416, 1469.416 391.894, 1497.497 397.592 C 1516.729 401.495, 1519 402.771, 1519 409.667 C 1519 414.978, 1515.578 417.918, 1507.861 419.235 C 1495.787 421.296, 1485.569 417.283, 1482.989 409.467 L 1481.845 406 1469.922 406 C 1456.253 406, 1456.542 405.729, 1459.519 415.753 C 1463.952 430.680, 1478.612 438.950, 1500.701 438.985 C 1516.036 439.010, 1527.017 435.570, 1534.355 428.444 C 1539.993 422.968, 1542.261 417.670, 1542.795 408.733 C 1543.394 398.710, 1541.511 393.500, 1535.321 388.052 C 1529.463 382.895, 1523.211 380.632, 1504.735 376.980 C 1496.435 375.340, 1488.639 373.338, 1487.409 372.533 C 1484.715 370.767, 1483.454 365.889, 1484.963 363.069 C 1486.502 360.194, 1490.923 358.144, 1497.164 357.412 C 1506.964 356.262, 1516.074 360.641, 1517.805 367.333 L 1518.624 370.500 1530.452 370.783 L 1542.281 371.066 1541.659 366.530 C 1539.947 354.035, 1529.241 343.280, 1514.650 339.395 C 1507.582 337.513, 1491.988 337.726, 1484 339.814 M 1702 339.814 C 1686.732 343.805, 1676.651 354.297, 1675.275 367.628 L 1674.720 373 1687.136 373 L 1699.552 373 1701.526 368.750 C 1703.964 363.501, 1708.485 360.396, 1714.991 359.501 C 1728.432 357.653, 1736.268 363.021, 1737.693 375.054 L 1738.279 380 1720.245 380 C 1696.800 380, 1691.404 381.427, 1683.016 389.844 C 1676.268 396.615, 1674.488 401.616, 1675.217 411.763 C 1676.015 422.889, 1681.535 430.662, 1691.949 435.327 C 1698.470 438.248, 1712.029 438.816, 1719.108 436.464 C 1725.905 434.206, 1734.272 426.161, 1736.073 420.150 C 1736.757 417.868, 1737.610 416, 1737.969 416 C 1738.329 416, 1739.671 420.725, 1740.953 426.500 L 1743.284 437 1753.142 437 L 1763 437 1763 401.682 C 1763 362.464, 1762.641 359.629, 1756.683 351.794 C 1752.424 346.193, 1744.455 341.491, 1735.937 339.554 C 1726.878 337.493, 1710.395 337.620, 1702 339.814 M 1942.385 339.570 C 1936.161 341.849, 1930.434 347.333, 1927.165 354.144 C 1923.869 361.010, 1923.631 360.740, 1922.411 348.750 L 1921.724 342 1910.862 342 L 1900 342 1900 409 L 1900 476 1912.500 476 L 1925 476 1925 447.304 L 1925 418.607 1927.588 423.801 C 1932.873 434.407, 1942.374 439.472, 1955.818 438.850 C 1978.400 437.806, 1993 418.036, 1993 388.500 C 1993 365.678, 1984.482 348.804, 1969.164 341.281 C 1964.505 338.993, 1961.992 338.461, 1955 338.282 C 1949.415 338.138, 1945.089 338.580, 1942.385 339.570 M 1057 389.500 L 1057 437 1069.500 437 L 1082 437 1082 389.500 L 1082 342 1069.500 342 L 1057 342 1057 389.500 M 755.625 360.409 C 750.469 362.327, 745.578 367.220, 743.161 372.882 C 739.086 382.423, 739.481 397.084, 744.057 406.095 C 750.058 417.912, 766.166 421.450, 776.853 413.299 C 786.936 405.608, 789.176 381.553, 781.008 368.674 C 776.050 360.856, 764.520 357.102, 755.625 360.409 M 1386.637 360.465 C 1375.497 364.436, 1369.113 379.371, 1371.817 395.137 C 1373.270 403.609, 1375.744 408.690, 1380.414 412.790 C 1392.221 423.157, 1410.075 417.209, 1414.999 401.268 C 1419.186 387.711, 1416.483 372.465, 1408.604 365.202 C 1402.136 359.241, 1394.619 357.620, 1386.637 360.465 M 1936.637 360.405 C 1925.438 364.571, 1919.116 379.387, 1921.817 395.137 C 1924.029 408.040, 1929.530 414.856, 1939.535 417.095 C 1954.802 420.512, 1965.733 410.319, 1966.813 391.661 C 1967.929 372.388, 1960.202 360.624, 1945.622 359.399 C 1942.574 359.143, 1938.936 359.550, 1936.637 360.405 M 1818.927 391.925 C 1813.734 394.746, 1808.282 401.240, 1806.946 406.193 C 1801.541 426.234, 1822.779 442.704, 1840.716 432.382 C 1855.113 424.097, 1855.694 402.444, 1841.768 393.228 C 1836.254 389.578, 1824.481 388.907, 1818.927 391.925 M 639.684 397.449 C 637.585 398.197, 635.006 399.589, 633.953 400.542 C 631.180 403.052, 630.499 408.130, 632.432 411.869 C 634.957 416.752, 638.317 418.387, 645.873 418.413 C 657.958 418.454, 666.272 411.570, 668.412 399.750 L 669.091 396 656.295 396.044 C 648.146 396.072, 642.114 396.582, 639.684 397.449 M 862.684 397.449 C 860.585 398.197, 858.006 399.589, 856.953 400.542 C 854.180 403.052, 853.499 408.130, 855.432 411.869 C 857.957 416.752, 861.317 418.387, 868.873 418.413 C 880.958 418.454, 889.272 411.570, 891.412 399.750 L 892.091 396 879.295 396.044 C 871.146 396.072, 865.114 396.582, 862.684 397.449 M 1270.684 397.449 C 1268.585 398.197, 1266.006 399.589, 1264.953 400.542 C 1262.180 403.052, 1261.499 408.130, 1263.432 411.869 C 1265.957 416.752, 1269.317 418.387, 1276.873 418.413 C 1288.958 418.454, 1297.272 411.570, 1299.412 399.750 L 1300.091 396 1287.295 396.044 C 1279.146 396.072, 1273.114 396.582, 1270.684 397.449 M 1708.684 397.449 C 1706.585 398.197, 1704.006 399.589, 1702.953 400.542 C 1700.180 403.052, 1699.499 408.130, 1701.432 411.869 C 1703.957 416.752, 1707.317 418.387, 1714.873 418.413 C 1726.958 418.454, 1735.272 411.570, 1737.412 399.750 L 1738.091 396 1725.295 396.044 C 1717.146 396.072, 1711.114 396.582, 1708.684 397.449 M 1267 508.223 C 1267 518.883, 1266.918 519.328, 1265.369 517.117 C 1261.897 512.159, 1253.085 510.600, 1246.984 513.865 C 1236.925 519.248, 1234.701 539.896, 1243.146 549.513 C 1244.871 551.478, 1247.764 553.393, 1249.841 553.947 C 1255.542 555.466, 1262.718 553.286, 1265.300 549.250 C 1266.701 547.060, 1268 547.902, 1268 551 C 1268 553.333, 1268.444 554, 1270 554 C 1271.953 554, 1272 553.333, 1272 525.500 L 1272 497 1269.500 497 L 1267 497 1267 508.223 M 1639 525.500 L 1639 554 1641.500 554 C 1643.939 554, 1644 553.821, 1644 546.687 C 1644 539.964, 1644.228 539.155, 1646.831 536.662 L 1649.662 533.950 1657.382 543.975 C 1664.134 552.741, 1665.481 554, 1668.111 554 C 1671.713 554, 1672.032 554.636, 1661.667 541.164 L 1653.715 530.828 1662.085 522.414 L 1670.456 514 1666.996 514 C 1663.955 514, 1662.351 515.180, 1653.768 523.731 L 1644 533.462 1644 515.231 L 1644 497 1641.500 497 L 1639 497 1639 525.500 M 1928 525.500 L 1928 554 1930.500 554 L 1933 554 1933.004 539.750 C 1933.008 523.363, 1934.138 520.100, 1940.772 517.314 C 1944.015 515.953, 1945.018 515.928, 1948.476 517.124 C 1954.362 519.161, 1954.968 521.175, 1954.985 538.750 L 1955 554 1957.500 554 L 1960 554 1960 537.901 C 1960 519.597, 1959.102 516.225, 1953.522 513.577 C 1947.213 510.584, 1937.917 512.425, 1934.465 517.353 C 1933.141 519.244, 1933 518.365, 1933 508.223 L 1933 497 1930.500 497 L 1928 497 1928 525.500 M 1141 526.070 L 1141 554.139 1143.250 553.820 C 1145.426 553.511, 1145.509 553.095, 1145.781 541.250 L 1146.062 529 1155.984 529 C 1170.980 529, 1171.713 529.648, 1173.969 544.897 C 1175.276 553.730, 1175.415 554, 1178.638 554 C 1180.865 554, 1181.090 553.679, 1180.566 551.250 C 1180.240 549.737, 1179.332 544.826, 1178.548 540.335 C 1176.930 531.061, 1175.513 528.183, 1172.148 527.329 C 1169.819 526.738, 1169.827 526.712, 1172.935 524.744 C 1177.188 522.052, 1179 518.149, 1179 511.685 C 1179 507.644, 1178.450 505.570, 1176.832 503.514 C 1173.230 498.935, 1169.450 498, 1154.532 498 L 1141 498 1141 526.070 M 1379 503 C 1379 507.667, 1379.167 508, 1381.500 508 C 1383.833 508, 1384 507.667, 1384 503 C 1384 498.333, 1383.833 498, 1381.500 498 C 1379.167 498, 1379 498.333, 1379 503 M 1522.234 525.750 L 1522.500 553.500 1524.750 553.820 C 1526.981 554.136, 1527 554.033, 1527 541.570 L 1527 529 1537.865 529 C 1552.276 529, 1553.301 529.734, 1554.950 541.230 C 1556.714 553.529, 1556.886 554, 1559.608 554 C 1562.453 554, 1562.479 553.636, 1560.509 541.615 C 1558.977 532.270, 1557.051 528.088, 1553.900 527.264 C 1552.272 526.838, 1552.589 526.249, 1556.153 523.086 C 1559.893 519.767, 1560.342 518.867, 1560.706 513.952 C 1561.215 507.098, 1558.902 502.200, 1554 499.752 C 1551.159 498.332, 1547.812 498.003, 1536.234 498.002 L 1521.968 498 1522.234 525.750 M 1576 503 C 1576 507.889, 1576.067 508, 1579 508 C 1581.933 508, 1582 507.889, 1582 503 C 1582 498.111, 1581.933 498, 1579 498 C 1576.067 498, 1576 498.111, 1576 503 M 1707 500 C 1707 501.859, 1707.667 502, 1716.483 502 L 1725.966 502 1726.233 527.750 L 1726.500 553.500 1728.750 553.820 L 1731 554.139 1731 528.070 L 1731 502 1741 502 C 1750.333 502, 1751 501.867, 1751 500 C 1751 498.061, 1750.333 498, 1729 498 C 1707.667 498, 1707 498.061, 1707 500 M 1146 513.088 L 1146 524.177 1157.084 523.838 L 1168.168 523.500 1171.084 520.234 C 1173.106 517.969, 1174 515.915, 1174 513.531 C 1174 504.919, 1169.186 502, 1154.980 502 L 1146 502 1146 513.088 M 1527 513.086 L 1527 524.172 1538.480 523.836 C 1549.487 523.514, 1550.074 523.386, 1552.730 520.727 C 1554.998 518.457, 1555.500 517.072, 1555.500 513.082 C 1555.500 504.500, 1551.070 502.015, 1535.750 502.006 L 1527 502 1527 513.086 M 1898.504 504.250 C 1898.265 504.938, 1897.942 507.300, 1897.785 509.500 L 1897.500 513.500 1892.750 513.805 C 1888.816 514.057, 1888 514.444, 1888 516.055 C 1888 517.722, 1888.714 518, 1893 518 L 1898 518 1898 533.845 C 1898 552.642, 1898.230 553.100, 1908.037 553.809 C 1913.885 554.232, 1914 554.191, 1914 551.672 C 1914 549.280, 1913.642 549.084, 1908.750 548.802 L 1903.500 548.500 1903.224 533.250 L 1902.948 518 1908.474 518 C 1913.333 518, 1914 517.759, 1914 516 C 1914 514.242, 1913.333 514, 1908.500 514 L 1903 514 1903 508.500 C 1903 503.638, 1902.764 503, 1900.969 503 C 1899.851 503, 1898.742 503.563, 1898.504 504.250 M 1200.989 514.250 C 1194.684 517.449, 1191.554 523.814, 1191.561 533.419 C 1191.571 546.901, 1197.735 554.338, 1208.888 554.328 C 1217.883 554.320, 1223.232 550.341, 1225.043 542.309 C 1225.749 539.181, 1225.638 539, 1223.020 539 C 1220.783 539, 1220.142 539.542, 1219.688 541.812 C 1218.730 546.602, 1215.893 549.145, 1210.876 549.710 C 1202.839 550.616, 1197.868 546.290, 1196.848 537.500 L 1196.500 534.500 1211.382 534.223 L 1226.264 533.945 1225.627 529.223 C 1223.675 514.767, 1212.889 508.212, 1200.989 514.250 M 1341.149 513.696 C 1335.503 516.479, 1332.736 521.851, 1332.202 531.071 C 1331.661 540.420, 1333.354 546.049, 1338.066 550.563 C 1340.743 553.128, 1341.935 553.503, 1348.298 553.785 C 1358.737 554.248, 1363.392 550.848, 1365.459 541.250 C 1366.105 538.252, 1365.962 538, 1363.618 538 C 1361.506 538, 1360.898 538.665, 1360.014 541.946 C 1357.140 552.620, 1342.780 552.897, 1338.379 542.364 C 1336.697 538.338, 1336.706 528.735, 1338.397 524.055 C 1342.160 513.638, 1357.611 514.079, 1359.596 524.660 C 1360.109 527.397, 1360.677 528, 1362.742 528 C 1365.092 528, 1365.221 527.749, 1364.657 524.273 C 1364.324 522.224, 1363.238 519.457, 1362.244 518.125 C 1357.949 512.372, 1348.053 510.295, 1341.149 513.696 M 1412 513.121 C 1410.625 513.667, 1408.263 515.298, 1406.750 516.744 L 1404 519.374 1404 516.687 C 1404 514.482, 1403.548 514, 1401.479 514 L 1398.958 514 1399.229 533.750 L 1399.500 553.500 1402 553.500 L 1404.500 553.500 1405.020 538.500 C 1405.306 530.250, 1405.906 522.739, 1406.354 521.810 C 1409.019 516.278, 1419.288 514.834, 1423.811 519.356 C 1426.471 522.016, 1426.504 522.219, 1426.856 538.078 C 1427.205 553.806, 1427.253 554.105, 1429.356 553.806 C 1431.450 553.507, 1431.500 553.112, 1431.489 537 C 1431.481 525.308, 1431.098 519.829, 1430.175 518.196 C 1427.206 512.947, 1418.531 510.524, 1412 513.121 M 1455.445 512.959 C 1452.242 514.256, 1447.218 520.554, 1446.060 524.723 C 1442.577 537.265, 1447.828 551.545, 1456.803 553.937 C 1463.121 555.621, 1470.781 553.005, 1473.529 548.225 C 1475.041 545.593, 1475.080 545.736, 1474.653 552.372 C 1474.283 558.124, 1473.783 559.672, 1471.585 561.872 C 1469.160 564.298, 1468.193 564.526, 1458.979 564.844 C 1449.200 565.181, 1449 565.236, 1449 567.594 C 1449 569.964, 1449.140 570, 1458.250 569.978 C 1468.842 569.953, 1474.657 567.978, 1477.672 563.381 C 1479.284 560.923, 1479.537 557.847, 1479.816 537.297 L 1480.133 514 1477.566 514 C 1475.344 514, 1474.996 514.436, 1474.968 517.250 L 1474.937 520.500 1472.795 517.627 C 1469.222 512.833, 1461.131 510.656, 1455.445 512.959 M 1601.424 513.895 C 1596.336 516.206, 1594.259 520.447, 1595.594 525.800 C 1596.781 530.561, 1600.979 533.327, 1610.168 535.402 C 1618.159 537.206, 1621 539.121, 1621 542.700 C 1621 546.729, 1616.784 550, 1611.593 550 C 1605.354 550, 1602.289 548.327, 1600.309 543.840 C 1599.084 541.062, 1598.006 540, 1596.413 540 C 1594.444 540, 1594.288 540.345, 1594.945 543.257 C 1596.701 551.043, 1601.256 554.250, 1610.559 554.250 C 1618.747 554.250, 1622.963 551.940, 1624.905 546.389 C 1627.554 538.815, 1624.338 533.948, 1615.019 531.431 C 1611.984 530.610, 1607.792 529.479, 1605.704 528.916 C 1598.077 526.859, 1598.297 519.190, 1606.049 516.867 C 1612.116 515.050, 1618.129 517.239, 1619.457 521.750 C 1620.176 524.194, 1620.983 525, 1622.707 525 C 1627.940 525, 1623.841 516.085, 1617.364 513.379 C 1612.813 511.477, 1606.281 511.689, 1601.424 513.895 M 1759.149 513.640 C 1757.306 514.579, 1754.606 517.149, 1753.149 519.351 C 1750.969 522.646, 1750.436 524.750, 1750.141 531.247 C 1749.720 540.507, 1751.442 546.134, 1756.051 550.549 C 1758.660 553.048, 1760.001 553.491, 1765.987 553.829 C 1771.758 554.156, 1773.484 553.864, 1776.383 552.073 C 1786.765 545.656, 1787.118 522.205, 1776.941 514.958 C 1772.590 511.860, 1763.906 511.217, 1759.149 513.640 M 1806.396 513.429 C 1803.099 514.865, 1799.765 518.882, 1797.940 523.619 C 1796.356 527.734, 1796.607 539.860, 1798.363 544.039 C 1802.911 554.860, 1816.083 558.035, 1823.250 550.037 L 1826 546.968 1826 552.550 C 1826 555.620, 1825.514 559.040, 1824.920 560.150 C 1823.170 563.420, 1817.831 565, 1808.532 565 C 1800.001 565, 1800 565, 1800 567.611 L 1800 570.221 1810.750 569.837 C 1819.102 569.538, 1822.221 569.021, 1824.734 567.520 C 1830.531 564.056, 1831 561.740, 1831 536.599 C 1831 514.667, 1830.941 514, 1829 514 C 1827.357 514, 1826.999 514.669, 1826.993 517.750 L 1826.987 521.500 1825.012 518.500 C 1821.137 512.611, 1813.226 510.456, 1806.396 513.429 M 1855.450 513.351 C 1848.698 516.415, 1844.978 523.800, 1845.049 534 C 1845.143 547.438, 1851.412 554.370, 1863.373 554.261 C 1871.482 554.187, 1877.150 549.720, 1878.613 542.250 C 1879.198 539.268, 1879.040 539, 1876.704 539 C 1874.694 539, 1874.022 539.625, 1873.506 541.973 C 1873.147 543.608, 1871.502 546.083, 1869.850 547.473 C 1863.443 552.864, 1853.341 549.489, 1851.035 541.186 C 1848.948 533.674, 1848.337 534, 1864.500 534 L 1879 534 1879 529.712 C 1879 524.558, 1875.576 517.401, 1871.791 514.644 C 1868.363 512.147, 1859.628 511.456, 1855.450 513.351 M 1982.989 514.250 C 1976.658 517.462, 1973.667 523.607, 1973.667 533.401 C 1973.667 547.094, 1979.665 554.333, 1991.010 554.333 C 1999.929 554.333, 2005.465 550.083, 2007.400 541.750 C 2007.984 539.234, 2007.791 539, 2005.130 539 C 2002.606 539, 2002.137 539.456, 2001.574 542.457 C 2000.720 547.011, 1996.853 550, 1991.815 550 C 1984.088 550, 1979 544.852, 1979 537.032 L 1979 534 1993.629 534 L 2008.258 534 2007.563 528.750 C 2005.697 514.639, 1994.844 508.235, 1982.989 514.250 M 2031.020 514.284 C 2029.656 514.975, 2027.975 516.656, 2027.284 518.020 L 2026.029 520.500 2026.015 517.250 C 2026.002 514.447, 2025.654 514, 2023.479 514 L 2020.958 514 2021.229 533.750 L 2021.500 553.500 2024 553.500 L 2026.500 553.500 2027 539 C 2027.319 529.740, 2027.974 523.670, 2028.811 522.202 C 2030.244 519.689, 2033.763 518, 2037.565 518 C 2039.496 518, 2040 517.482, 2040 515.500 C 2040 513.343, 2039.554 513.002, 2036.750 513.015 C 2034.963 513.023, 2032.384 513.594, 2031.020 514.284 M 1287 530.600 L 1287 547.200 1290.400 550.600 C 1293.467 553.667, 1294.356 554, 1299.466 554 C 1305.892 554, 1308.530 552.960, 1311.745 549.156 L 1313.990 546.500 1313.995 550.250 C 1313.999 553.332, 1314.356 554, 1316 554 C 1317.933 554, 1318 553.333, 1318 534 L 1318 514 1315.500 514 L 1313 514 1313 528.484 C 1313 542.947, 1312.996 542.973, 1310.191 546.113 C 1307.917 548.657, 1306.405 549.351, 1302.265 549.749 C 1297.753 550.182, 1296.845 549.936, 1294.575 547.666 C 1292.029 545.120, 1292 544.914, 1292 529.545 L 1292 514 1289.500 514 L 1287 514 1287 530.600 M 1379.229 533.750 C 1379.498 553.377, 1379.514 553.502, 1381.750 553.820 L 1384 554.139 1384 534.070 L 1384 514 1381.479 514 L 1378.958 514 1379.229 533.750 M 1576.229 533.750 C 1576.498 553.377, 1576.514 553.502, 1578.750 553.820 L 1581 554.139 1581 534.070 L 1581 514 1578.479 514 L 1575.958 514 1576.229 533.750 M 1205.035 517.306 C 1201.163 518.640, 1197 523.998, 1197 527.648 C 1197 529.987, 1197.067 530, 1209.019 530 L 1221.038 530 1220.379 527.250 C 1219.137 522.071, 1216.866 518.842, 1213.466 517.421 C 1209.485 515.758, 1209.529 515.759, 1205.035 517.306 M 1251 517.285 C 1241.874 520.453, 1239.944 540.567, 1248.106 547.436 C 1253.747 552.183, 1262.266 550.175, 1265.512 543.333 C 1267.849 538.408, 1267.910 527.661, 1265.626 523.244 C 1262.675 517.538, 1256.969 515.213, 1251 517.285 M 1459.500 516.694 C 1449.396 519.221, 1446.611 538.765, 1455.140 547.294 C 1457.828 549.982, 1458.552 550.201, 1463.237 549.751 C 1467.196 549.371, 1468.907 548.647, 1470.657 546.612 C 1476.906 539.348, 1475.791 523.145, 1468.729 518.577 C 1465.994 516.808, 1462.166 516.027, 1459.500 516.694 M 1762 517.711 C 1757.261 520.133, 1755.003 524.978, 1755.002 532.730 C 1755 540.542, 1757.327 546.601, 1761.074 548.538 C 1767.209 551.711, 1774.589 549.493, 1777.365 543.643 C 1779.407 539.340, 1779.528 528.200, 1777.584 523.546 C 1774.973 517.299, 1767.950 514.669, 1762 517.711 M 1809 517.752 C 1804.138 520.180, 1802.003 524.920, 1802.002 533.290 C 1801.999 544.454, 1806.118 550, 1814.412 550 C 1821.382 550, 1826.016 543.302, 1825.978 533.282 C 1825.948 525.352, 1823.148 519.378, 1818.564 517.462 C 1814.108 515.600, 1813.254 515.626, 1809 517.752 M 1858.071 517.752 C 1854.215 519.718, 1851.496 523.165, 1850.579 527.250 L 1849.962 530 1861.981 530 C 1873.522 530, 1874 529.917, 1874 527.901 C 1874 523.921, 1870.770 518.802, 1867.360 517.377 C 1863.120 515.605, 1862.208 515.642, 1858.071 517.752 M 1987.094 517.285 C 1983.112 518.705, 1980.281 522.181, 1979.387 526.750 L 1978.750 530 1990.894 530 L 2003.038 530 2002.373 527.250 C 2001.112 522.041, 2000.083 520.100, 1997.795 518.620 C 1994.318 516.371, 1990.864 515.940, 1987.094 517.285" stroke="none" fill="#343a38" fill-rule="evenodd"/><path d="M 0 316 L 0 632.001 1110.250 631.750 L 2220.500 631.500 2220.752 315.750 L 2221.003 0 1110.502 0 L 0 0 0 316 M 0.494 316.500 C 0.494 490.300, 0.609 561.251, 0.750 474.169 C 0.891 387.087, 0.891 244.887, 0.750 158.169 C 0.609 71.451, 0.494 142.700, 0.494 316.500 M 1811.500 39.044 C 1801.376 40.612, 1787.959 44.829, 1778.169 49.520 C 1741.496 67.095, 1716.265 101.681, 1710.908 141.719 C 1707.684 165.810, 1712.976 193.696, 1724.813 215 C 1727.479 219.797, 1823.209 349.049, 1828.011 354.335 C 1828.713 355.107, 1850.553 326.756, 1907.858 250.685 C 1931.720 219.008, 1937.493 209.588, 1942.291 194.500 C 1947.090 179.410, 1947.503 176.365, 1947.443 156.500 C 1947.390 139.183, 1947.151 136.631, 1944.734 127.687 C 1932.550 82.587, 1897.782 49.696, 1852 39.961 C 1844.830 38.437, 1819.176 37.856, 1811.500 39.044 M 1815.500 51.076 C 1774.682 56.646, 1741.729 85.112, 1729.346 125.500 C 1726.735 134.014, 1726.587 135.552, 1726.587 154 C 1726.587 172.480, 1726.732 173.971, 1729.359 182.500 C 1740.325 218.097, 1766.548 243.769, 1802.616 254.216 C 1809.634 256.249, 1812.588 256.494, 1829.500 256.449 C 1847.303 256.400, 1849.067 256.224, 1857.500 253.646 C 1893.785 242.554, 1920.118 215.406, 1929.709 179.206 C 1931.943 170.774, 1932.280 167.465, 1932.280 154 C 1932.280 140.508, 1931.945 137.234, 1929.691 128.723 C 1917.806 83.848, 1879.388 52.553, 1833.793 50.604 C 1827.582 50.338, 1819.350 50.551, 1815.500 51.076 M 1811 58.432 C 1802.372 60.242, 1793.021 63.456, 1785.851 67.075 L 1780 70.029 1780 153.969 L 1780 237.909 1787.250 241.343 C 1836.130 264.495, 1894.050 243.730, 1916.951 194.844 C 1923.818 180.184, 1925.511 171.924, 1925.427 153.500 C 1925.342 135.156, 1923.821 127.815, 1917.159 113.597 C 1907 91.919, 1891.081 76, 1869.403 65.841 C 1856.441 59.767, 1847.722 57.830, 1831.500 57.421 C 1822.219 57.187, 1815.309 57.527, 1811 58.432 M 1848.608 113.052 C 1850.046 117.894, 1850.028 118.294, 1848.320 119.525 C 1842.100 124.009, 1842.120 123.934, 1847.170 123.968 L 1851.839 124 1853.585 129.250 L 1855.332 134.500 1856.916 129.500 C 1858.464 124.615, 1858.603 124.489, 1862.989 124 L 1867.478 123.500 1864.018 120.802 C 1860.602 118.137, 1860.573 118.051, 1861.705 113.811 C 1862.335 111.450, 1862.689 109.356, 1862.491 109.158 C 1862.293 108.960, 1860.537 110.014, 1858.588 111.501 L 1855.045 114.203 1851.060 111.048 L 1847.076 107.892 1848.608 113.052 M 1817.400 117.836 C 1811.498 122.128, 1806.075 128.615, 1803.157 134.875 C 1800.830 139.865, 1800.532 141.745, 1800.517 151.521 C 1800.501 161.939, 1800.677 162.901, 1803.734 169.110 C 1819.269 200.668, 1865.142 200.793, 1880.619 169.319 C 1883.424 163.616, 1885.740 151.337, 1884.569 148.381 C 1883.971 146.872, 1883.436 147.527, 1881.861 151.698 C 1879.067 159.099, 1872.236 166.266, 1864.209 170.218 C 1858.263 173.145, 1856.634 173.497, 1849.024 173.498 C 1841.560 173.500, 1839.692 173.115, 1834 170.405 C 1821.631 164.517, 1814.154 153.958, 1813.244 141.094 C 1812.674 133.043, 1813.898 128.212, 1818.404 120.730 C 1820.301 117.579, 1821.729 115, 1821.577 115 C 1821.425 115, 1819.545 116.276, 1817.400 117.836 M 719 369.500 L 719 437 730 437 L 741 437 741 434.541 C 741 433.188, 741.513 428.632, 742.140 424.415 L 743.281 416.748 745.810 422.070 C 751.545 434.137, 760.812 439.498, 774.818 438.850 C 797.400 437.806, 812 418.036, 812 388.500 C 812 358.964, 797.400 339.194, 774.818 338.150 C 761.374 337.528, 751.873 342.593, 746.588 353.199 L 744 358.393 744 330.196 L 744 302 731.500 302 L 719 302 719 369.500 M 942 369.500 L 942 437 954.449 437 L 966.899 437 967.199 404.250 C 967.483 373.330, 967.615 371.304, 969.551 368 C 972.834 362.398, 979.045 359.549, 988.002 359.537 C 996.793 359.525, 1001.243 361.552, 1004.465 367.035 C 1006.383 370.301, 1006.517 372.407, 1006.800 403.750 L 1007.100 437 1019.550 437 L 1032 437 1032 400.816 C 1032 360.433, 1031.603 357.257, 1025.506 348.857 C 1023.169 345.637, 1020.352 343.338, 1016.318 341.357 C 1010.989 338.740, 1009.575 338.500, 999.500 338.500 C 990.025 338.500, 987.849 338.821, 983.805 340.813 C 977.982 343.681, 971.847 349.712, 969.092 355.276 L 967.002 359.500 967.001 330.750 L 967 302 954.500 302 L 942 302 942 369.500 M 1055 315 L 1055 328 1069 328 L 1083 328 1083 315 L 1083 302 1069 302 L 1055 302 1055 315 M 1564 369.500 L 1564 437 1576.449 437 L 1588.899 437 1589.199 404.250 C 1589.483 373.330, 1589.615 371.304, 1591.551 368 C 1594.834 362.398, 1601.045 359.549, 1610.002 359.537 C 1618.793 359.525, 1623.243 361.552, 1626.465 367.035 C 1628.383 370.301, 1628.517 372.407, 1628.800 403.750 L 1629.100 437 1641.550 437 L 1654 437 1654 400.816 C 1654 360.433, 1653.603 357.257, 1647.506 348.857 C 1645.169 345.637, 1642.352 343.338, 1638.318 341.357 C 1632.989 338.740, 1631.575 338.500, 1621.500 338.500 C 1612.025 338.500, 1609.849 338.821, 1605.805 340.813 C 1599.982 343.681, 1593.847 349.712, 1591.092 355.276 L 1589.002 359.500 1589.001 330.750 L 1589 302 1576.500 302 L 1564 302 1564 369.500 M 2015 369.500 L 2015 437 2027.500 437 L 2040 437 2040.011 424.250 L 2040.022 411.500 2044.932 406 C 2049.393 401.004, 2049.964 400.657, 2051.171 402.214 C 2051.902 403.157, 2058.350 411.354, 2065.500 420.429 L 2078.500 436.930 2093.809 436.965 C 2102.229 436.984, 2108.909 436.661, 2108.653 436.247 C 2108.397 435.833, 2098.905 423.815, 2087.560 409.539 L 2066.933 383.584 2087.708 362.792 L 2108.482 342 2092.830 342 L 2077.177 342 2058.839 361.346 L 2040.500 380.693 2040.239 341.346 L 2039.977 302 2027.489 302 L 2015 302 2015 369.500 M 501 315.500 L 501 327 523.500 327 L 546 327 546 382 L 546 437 558.500 437 L 571 437 571 382 L 571 327 593.500 327 L 616 327 616 315.500 L 616 304 558.500 304 L 501 304 501 315.500 M 1107 370.480 L 1107 437 1118.492 437 L 1129.983 437 1130.242 381.444 L 1130.500 325.888 1153 381.437 L 1175.500 436.986 1195.750 436.993 L 1216 437 1216 370.500 L 1216 304 1204.509 304 L 1193.017 304 1192.759 358.714 L 1192.500 413.428 1170.427 358.964 L 1148.354 304.500 1127.677 304.230 L 1107 303.959 1107 370.480 M 633 339.814 C 617.732 343.805, 607.651 354.297, 606.275 367.628 L 605.720 373 618.136 373 L 630.552 373 632.526 368.750 C 634.964 363.501, 639.485 360.396, 645.991 359.501 C 659.432 357.653, 667.268 363.021, 668.693 375.054 L 669.279 380 651.245 380 C 627.800 380, 622.404 381.427, 614.016 389.844 C 607.268 396.615, 605.488 401.616, 606.217 411.763 C 607.015 422.889, 612.535 430.662, 622.949 435.327 C 629.470 438.248, 643.029 438.816, 650.108 436.464 C 656.905 434.206, 665.272 426.161, 667.073 420.150 C 667.757 417.868, 668.610 416, 668.969 416 C 669.329 416, 670.671 420.725, 671.953 426.500 L 674.284 437 684.142 437 L 694 437 694 401.682 C 694 362.464, 693.641 359.629, 687.683 351.794 C 683.424 346.193, 675.455 341.491, 666.937 339.554 C 657.878 337.493, 641.395 337.620, 633 339.814 M 856 339.814 C 840.732 343.805, 830.651 354.297, 829.275 367.628 L 828.720 373 841.136 373 L 853.552 373 855.526 368.750 C 857.964 363.501, 862.485 360.396, 868.991 359.501 C 882.432 357.653, 890.268 363.021, 891.693 375.054 L 892.279 380 874.245 380 C 850.800 380, 845.404 381.427, 837.016 389.844 C 830.268 396.615, 828.488 401.616, 829.217 411.763 C 830.015 422.889, 835.535 430.662, 845.949 435.327 C 852.470 438.248, 866.029 438.816, 873.108 436.464 C 879.905 434.206, 888.272 426.161, 890.073 420.150 C 890.757 417.868, 891.610 416, 891.969 416 C 892.329 416, 893.671 420.725, 894.953 426.500 L 897.284 437 907.142 437 L 917 437 917 401.682 C 917 362.464, 916.641 359.629, 910.683 351.794 C 906.424 346.193, 898.455 341.491, 889.937 339.554 C 880.878 337.493, 864.395 337.620, 856 339.814 M 1264 339.814 C 1248.732 343.805, 1238.651 354.297, 1237.275 367.628 L 1236.720 373 1249.136 373 L 1261.552 373 1263.526 368.750 C 1265.964 363.501, 1270.485 360.396, 1276.991 359.501 C 1290.432 357.653, 1298.268 363.021, 1299.693 375.054 L 1300.279 380 1282.245 380 C 1258.800 380, 1253.404 381.427, 1245.016 389.844 C 1238.268 396.615, 1236.488 401.616, 1237.217 411.763 C 1238.015 422.889, 1243.535 430.662, 1253.949 435.327 C 1260.470 438.248, 1274.029 438.816, 1281.108 436.464 C 1287.905 434.206, 1296.272 426.161, 1298.073 420.150 C 1298.757 417.868, 1299.610 416, 1299.969 416 C 1300.329 416, 1301.671 420.725, 1302.953 426.500 L 1305.284 437 1315.142 437 L 1325 437 1325 401.682 C 1325 362.464, 1324.641 359.629, 1318.683 351.794 C 1314.424 346.193, 1306.455 341.491, 1297.937 339.554 C 1288.878 337.493, 1272.395 337.620, 1264 339.814 M 1372.879 339.666 C 1362.026 343.290, 1352.823 353.704, 1348.329 367.448 C 1346.033 374.470, 1345.696 377.164, 1345.696 388.500 C 1345.696 399.836, 1346.033 402.530, 1348.329 409.552 C 1354.803 429.352, 1368.461 439.745, 1386.786 438.818 C 1398.691 438.216, 1406.778 433.086, 1411.792 422.957 L 1413.998 418.500 1413.999 447.250 L 1414 476 1426.500 476 L 1439 476 1439 409 L 1439 342 1428.129 342 L 1417.258 342 1416.558 349.104 C 1416.173 353.012, 1415.522 357.117, 1415.112 358.227 C 1414.480 359.935, 1414.092 359.529, 1412.588 355.592 C 1410.126 349.145, 1402.694 341.765, 1396.556 339.674 C 1390.443 337.591, 1379.106 337.587, 1372.879 339.666 M 1484 339.814 C 1467.759 344.059, 1460.144 353.035, 1460.044 368.054 C 1459.934 384.416, 1469.416 391.894, 1497.497 397.592 C 1516.729 401.495, 1519 402.771, 1519 409.667 C 1519 414.978, 1515.578 417.918, 1507.861 419.235 C 1495.787 421.296, 1485.569 417.283, 1482.989 409.467 L 1481.845 406 1469.922 406 C 1456.253 406, 1456.542 405.729, 1459.519 415.753 C 1463.952 430.680, 1478.612 438.950, 1500.701 438.985 C 1516.036 439.010, 1527.017 435.570, 1534.355 428.444 C 1539.993 422.968, 1542.261 417.670, 1542.795 408.733 C 1543.394 398.710, 1541.511 393.500, 1535.321 388.052 C 1529.463 382.895, 1523.211 380.632, 1504.735 376.980 C 1496.435 375.340, 1488.639 373.338, 1487.409 372.533 C 1484.715 370.767, 1483.454 365.889, 1484.963 363.069 C 1486.502 360.194, 1490.923 358.144, 1497.164 357.412 C 1506.964 356.262, 1516.074 360.641, 1517.805 367.333 L 1518.624 370.500 1530.452 370.783 L 1542.281 371.066 1541.659 366.530 C 1539.947 354.035, 1529.241 343.280, 1514.650 339.395 C 1507.582 337.513, 1491.988 337.726, 1484 339.814 M 1702 339.814 C 1686.732 343.805, 1676.651 354.297, 1675.275 367.628 L 1674.720 373 1687.136 373 L 1699.552 373 1701.526 368.750 C 1703.964 363.501, 1708.485 360.396, 1714.991 359.501 C 1728.432 357.653, 1736.268 363.021, 1737.693 375.054 L 1738.279 380 1720.245 380 C 1696.800 380, 1691.404 381.427, 1683.016 389.844 C 1676.268 396.615, 1674.488 401.616, 1675.217 411.763 C 1676.015 422.889, 1681.535 430.662, 1691.949 435.327 C 1698.470 438.248, 1712.029 438.816, 1719.108 436.464 C 1725.905 434.206, 1734.272 426.161, 1736.073 420.150 C 1736.757 417.868, 1737.610 416, 1737.969 416 C 1738.329 416, 1739.671 420.725, 1740.953 426.500 L 1743.284 437 1753.142 437 L 1763 437 1763 401.682 C 1763 362.464, 1762.641 359.629, 1756.683 351.794 C 1752.424 346.193, 1744.455 341.491, 1735.937 339.554 C 1726.878 337.493, 1710.395 337.620, 1702 339.814 M 1942.385 339.570 C 1936.161 341.849, 1930.434 347.333, 1927.165 354.144 C 1923.869 361.010, 1923.631 360.740, 1922.411 348.750 L 1921.724 342 1910.862 342 L 1900 342 1900 409 L 1900 476 1912.500 476 L 1925 476 1925 447.304 L 1925 418.607 1927.588 423.801 C 1932.873 434.407, 1942.374 439.472, 1955.818 438.850 C 1978.400 437.806, 1993 418.036, 1993 388.500 C 1993 365.678, 1984.482 348.804, 1969.164 341.281 C 1964.505 338.993, 1961.992 338.461, 1955 338.282 C 1949.415 338.138, 1945.089 338.580, 1942.385 339.570 M 1057 389.500 L 1057 437 1069.500 437 L 1082 437 1082 389.500 L 1082 342 1069.500 342 L 1057 342 1057 389.500 M 755.625 360.409 C 750.469 362.327, 745.578 367.220, 743.161 372.882 C 739.086 382.423, 739.481 397.084, 744.057 406.095 C 750.058 417.912, 766.166 421.450, 776.853 413.299 C 786.936 405.608, 789.176 381.553, 781.008 368.674 C 776.050 360.856, 764.520 357.102, 755.625 360.409 M 1386.637 360.465 C 1375.497 364.436, 1369.113 379.371, 1371.817 395.137 C 1373.270 403.609, 1375.744 408.690, 1380.414 412.790 C 1392.221 423.157, 1410.075 417.209, 1414.999 401.268 C 1419.186 387.711, 1416.483 372.465, 1408.604 365.202 C 1402.136 359.241, 1394.619 357.620, 1386.637 360.465 M 1936.637 360.405 C 1925.438 364.571, 1919.116 379.387, 1921.817 395.137 C 1924.029 408.040, 1929.530 414.856, 1939.535 417.095 C 1954.802 420.512, 1965.733 410.319, 1966.813 391.661 C 1967.929 372.388, 1960.202 360.624, 1945.622 359.399 C 1942.574 359.143, 1938.936 359.550, 1936.637 360.405 M 1818.927 391.925 C 1813.734 394.746, 1808.282 401.240, 1806.946 406.193 C 1801.541 426.234, 1822.779 442.704, 1840.716 432.382 C 1855.113 424.097, 1855.694 402.444, 1841.768 393.228 C 1836.254 389.578, 1824.481 388.907, 1818.927 391.925 M 639.684 397.449 C 637.585 398.197, 635.006 399.589, 633.953 400.542 C 631.180 403.052, 630.499 408.130, 632.432 411.869 C 634.957 416.752, 638.317 418.387, 645.873 418.413 C 657.958 418.454, 666.272 411.570, 668.412 399.750 L 669.091 396 656.295 396.044 C 648.146 396.072, 642.114 396.582, 639.684 397.449 M 862.684 397.449 C 860.585 398.197, 858.006 399.589, 856.953 400.542 C 854.180 403.052, 853.499 408.130, 855.432 411.869 C 857.957 416.752, 861.317 418.387, 868.873 418.413 C 880.958 418.454, 889.272 411.570, 891.412 399.750 L 892.091 396 879.295 396.044 C 871.146 396.072, 865.114 396.582, 862.684 397.449 M 1270.684 397.449 C 1268.585 398.197, 1266.006 399.589, 1264.953 400.542 C 1262.180 403.052, 1261.499 408.130, 1263.432 411.869 C 1265.957 416.752, 1269.317 418.387, 1276.873 418.413 C 1288.958 418.454, 1297.272 411.570, 1299.412 399.750 L 1300.091 396 1287.295 396.044 C 1279.146 396.072, 1273.114 396.582, 1270.684 397.449 M 1708.684 397.449 C 1706.585 398.197, 1704.006 399.589, 1702.953 400.542 C 1700.180 403.052, 1699.499 408.130, 1701.432 411.869 C 1703.957 416.752, 1707.317 418.387, 1714.873 418.413 C 1726.958 418.454, 1735.272 411.570, 1737.412 399.750 L 1738.091 396 1725.295 396.044 C 1717.146 396.072, 1711.114 396.582, 1708.684 397.449 M 1267 508.223 C 1267 518.883, 1266.918 519.328, 1265.369 517.117 C 1261.897 512.159, 1253.085 510.600, 1246.984 513.865 C 1236.925 519.248, 1234.701 539.896, 1243.146 549.513 C 1244.871 551.478, 1247.764 553.393, 1249.841 553.947 C 1255.542 555.466, 1262.718 553.286, 1265.300 549.250 C 1266.701 547.060, 1268 547.902, 1268 551 C 1268 553.333, 1268.444 554, 1270 554 C 1271.953 554, 1272 553.333, 1272 525.500 L 1272 497 1269.500 497 L 1267 497 1267 508.223 M 1639 525.500 L 1639 554 1641.500 554 C 1643.939 554, 1644 553.821, 1644 546.687 C 1644 539.964, 1644.228 539.155, 1646.831 536.662 L 1649.662 533.950 1657.382 543.975 C 1664.134 552.741, 1665.481 554, 1668.111 554 C 1671.713 554, 1672.032 554.636, 1661.667 541.164 L 1653.715 530.828 1662.085 522.414 L 1670.456 514 1666.996 514 C 1663.955 514, 1662.351 515.180, 1653.768 523.731 L 1644 533.462 1644 515.231 L 1644 497 1641.500 497 L 1639 497 1639 525.500 M 1928 525.500 L 1928 554 1930.500 554 L 1933 554 1933.004 539.750 C 1933.008 523.363, 1934.138 520.100, 1940.772 517.314 C 1944.015 515.953, 1945.018 515.928, 1948.476 517.124 C 1954.362 519.161, 1954.968 521.175, 1954.985 538.750 L 1955 554 1957.500 554 L 1960 554 1960 537.901 C 1960 519.597, 1959.102 516.225, 1953.522 513.577 C 1947.213 510.584, 1937.917 512.425, 1934.465 517.353 C 1933.141 519.244, 1933 518.365, 1933 508.223 L 1933 497 1930.500 497 L 1928 497 1928 525.500 M 1141 526.070 L 1141 554.139 1143.250 553.820 C 1145.426 553.511, 1145.509 553.095, 1145.781 541.250 L 1146.062 529 1155.984 529 C 1170.980 529, 1171.713 529.648, 1173.969 544.897 C 1175.276 553.730, 1175.415 554, 1178.638 554 C 1180.865 554, 1181.090 553.679, 1180.566 551.250 C 1180.240 549.737, 1179.332 544.826, 1178.548 540.335 C 1176.930 531.061, 1175.513 528.183, 1172.148 527.329 C 1169.819 526.738, 1169.827 526.712, 1172.935 524.744 C 1177.188 522.052, 1179 518.149, 1179 511.685 C 1179 507.644, 1178.450 505.570, 1176.832 503.514 C 1173.230 498.935, 1169.450 498, 1154.532 498 L 1141 498 1141 526.070 M 1379 503 C 1379 507.667, 1379.167 508, 1381.500 508 C 1383.833 508, 1384 507.667, 1384 503 C 1384 498.333, 1383.833 498, 1381.500 498 C 1379.167 498, 1379 498.333, 1379 503 M 1522.234 525.750 L 1522.500 553.500 1524.750 553.820 C 1526.981 554.136, 1527 554.033, 1527 541.570 L 1527 529 1537.865 529 C 1552.276 529, 1553.301 529.734, 1554.950 541.230 C 1556.714 553.529, 1556.886 554, 1559.608 554 C 1562.453 554, 1562.479 553.636, 1560.509 541.615 C 1558.977 532.270, 1557.051 528.088, 1553.900 527.264 C 1552.272 526.838, 1552.589 526.249, 1556.153 523.086 C 1559.893 519.767, 1560.342 518.867, 1560.706 513.952 C 1561.215 507.098, 1558.902 502.200, 1554 499.752 C 1551.159 498.332, 1547.812 498.003, 1536.234 498.002 L 1521.968 498 1522.234 525.750 M 1576 503 C 1576 507.889, 1576.067 508, 1579 508 C 1581.933 508, 1582 507.889, 1582 503 C 1582 498.111, 1581.933 498, 1579 498 C 1576.067 498, 1576 498.111, 1576 503 M 1707 500 C 1707 501.859, 1707.667 502, 1716.483 502 L 1725.966 502 1726.233 527.750 L 1726.500 553.500 1728.750 553.820 L 1731 554.139 1731 528.070 L 1731 502 1741 502 C 1750.333 502, 1751 501.867, 1751 500 C 1751 498.061, 1750.333 498, 1729 498 C 1707.667 498, 1707 498.061, 1707 500 M 1146 513.088 L 1146 524.177 1157.084 523.838 L 1168.168 523.500 1171.084 520.234 C 1173.106 517.969, 1174 515.915, 1174 513.531 C 1174 504.919, 1169.186 502, 1154.980 502 L 1146 502 1146 513.088 M 1527 513.086 L 1527 524.172 1538.480 523.836 C 1549.487 523.514, 1550.074 523.386, 1552.730 520.727 C 1554.998 518.457, 1555.500 517.072, 1555.500 513.082 C 1555.500 504.500, 1551.070 502.015, 1535.750 502.006 L 1527 502 1527 513.086 M 1898.504 504.250 C 1898.265 504.938, 1897.942 507.300, 1897.785 509.500 L 1897.500 513.500 1892.750 513.805 C 1888.816 514.057, 1888 514.444, 1888 516.055 C 1888 517.722, 1888.714 518, 1893 518 L 1898 518 1898 533.845 C 1898 552.642, 1898.230 553.100, 1908.037 553.809 C 1913.885 554.232, 1914 554.191, 1914 551.672 C 1914 549.280, 1913.642 549.084, 1908.750 548.802 L 1903.500 548.500 1903.224 533.250 L 1902.948 518 1908.474 518 C 1913.333 518, 1914 517.759, 1914 516 C 1914 514.242, 1913.333 514, 1908.500 514 L 1903 514 1903 508.500 C 1903 503.638, 1902.764 503, 1900.969 503 C 1899.851 503, 1898.742 503.563, 1898.504 504.250 M 1200.989 514.250 C 1194.684 517.449, 1191.554 523.814, 1191.561 533.419 C 1191.571 546.901, 1197.735 554.338, 1208.888 554.328 C 1217.883 554.320, 1223.232 550.341, 1225.043 542.309 C 1225.749 539.181, 1225.638 539, 1223.020 539 C 1220.783 539, 1220.142 539.542, 1219.688 541.812 C 1218.730 546.602, 1215.893 549.145, 1210.876 549.710 C 1202.839 550.616, 1197.868 546.290, 1196.848 537.500 L 1196.500 534.500 1211.382 534.223 L 1226.264 533.945 1225.627 529.223 C 1223.675 514.767, 1212.889 508.212, 1200.989 514.250 M 1341.149 513.696 C 1335.503 516.479, 1332.736 521.851, 1332.202 531.071 C 1331.661 540.420, 1333.354 546.049, 1338.066 550.563 C 1340.743 553.128, 1341.935 553.503, 1348.298 553.785 C 1358.737 554.248, 1363.392 550.848, 1365.459 541.250 C 1366.105 538.252, 1365.962 538, 1363.618 538 C 1361.506 538, 1360.898 538.665, 1360.014 541.946 C 1357.140 552.620, 1342.780 552.897, 1338.379 542.364 C 1336.697 538.338, 1336.706 528.735, 1338.397 524.055 C 1342.160 513.638, 1357.611 514.079, 1359.596 524.660 C 1360.109 527.397, 1360.677 528, 1362.742 528 C 1365.092 528, 1365.221 527.749, 1364.657 524.273 C 1364.324 522.224, 1363.238 519.457, 1362.244 518.125 C 1357.949 512.372, 1348.053 510.295, 1341.149 513.696 M 1412 513.121 C 1410.625 513.667, 1408.263 515.298, 1406.750 516.744 L 1404 519.374 1404 516.687 C 1404 514.482, 1403.548 514, 1401.479 514 L 1398.958 514 1399.229 533.750 L 1399.500 553.500 1402 553.500 L 1404.500 553.500 1405.020 538.500 C 1405.306 530.250, 1405.906 522.739, 1406.354 521.810 C 1409.019 516.278, 1419.288 514.834, 1423.811 519.356 C 1426.471 522.016, 1426.504 522.219, 1426.856 538.078 C 1427.205 553.806, 1427.253 554.105, 1429.356 553.806 C 1431.450 553.507, 1431.500 553.112, 1431.489 537 C 1431.481 525.308, 1431.098 519.829, 1430.175 518.196 C 1427.206 512.947, 1418.531 510.524, 1412 513.121 M 1455.445 512.959 C 1452.242 514.256, 1447.218 520.554, 1446.060 524.723 C 1442.577 537.265, 1447.828 551.545, 1456.803 553.937 C 1463.121 555.621, 1470.781 553.005, 1473.529 548.225 C 1475.041 545.593, 1475.080 545.736, 1474.653 552.372 C 1474.283 558.124, 1473.783 559.672, 1471.585 561.872 C 1469.160 564.298, 1468.193 564.526, 1458.979 564.844 C 1449.200 565.181, 1449 565.236, 1449 567.594 C 1449 569.964, 1449.140 570, 1458.250 569.978 C 1468.842 569.953, 1474.657 567.978, 1477.672 563.381 C 1479.284 560.923, 1479.537 557.847, 1479.816 537.297 L 1480.133 514 1477.566 514 C 1475.344 514, 1474.996 514.436, 1474.968 517.250 L 1474.937 520.500 1472.795 517.627 C 1469.222 512.833, 1461.131 510.656, 1455.445 512.959 M 1601.424 513.895 C 1596.336 516.206, 1594.259 520.447, 1595.594 525.800 C 1596.781 530.561, 1600.979 533.327, 1610.168 535.402 C 1618.159 537.206, 1621 539.121, 1621 542.700 C 1621 546.729, 1616.784 550, 1611.593 550 C 1605.354 550, 1602.289 548.327, 1600.309 543.840 C 1599.084 541.062, 1598.006 540, 1596.413 540 C 1594.444 540, 1594.288 540.345, 1594.945 543.257 C 1596.701 551.043, 1601.256 554.250, 1610.559 554.250 C 1618.747 554.250, 1622.963 551.940, 1624.905 546.389 C 1627.554 538.815, 1624.338 533.948, 1615.019 531.431 C 1611.984 530.610, 1607.792 529.479, 1605.704 528.916 C 1598.077 526.859, 1598.297 519.190, 1606.049 516.867 C 1612.116 515.050, 1618.129 517.239, 1619.457 521.750 C 1620.176 524.194, 1620.983 525, 1622.707 525 C 1627.940 525, 1623.841 516.085, 1617.364 513.379 C 1612.813 511.477, 1606.281 511.689, 1601.424 513.895 M 1759.149 513.640 C 1757.306 514.579, 1754.606 517.149, 1753.149 519.351 C 1750.969 522.646, 1750.436 524.750, 1750.141 531.247 C 1749.720 540.507, 1751.442 546.134, 1756.051 550.549 C 1758.660 553.048, 1760.001 553.491, 1765.987 553.829 C 1771.758 554.156, 1773.484 553.864, 1776.383 552.073 C 1786.765 545.656, 1787.118 522.205, 1776.941 514.958 C 1772.590 511.860, 1763.906 511.217, 1759.149 513.640 M 1806.396 513.429 C 1803.099 514.865, 1799.765 518.882, 1797.940 523.619 C 1796.356 527.734, 1796.607 539.860, 1798.363 544.039 C 1802.911 554.860, 1816.083 558.035, 1823.250 550.037 L 1826 546.968 1826 552.550 C 1826 555.620, 1825.514 559.040, 1824.920 560.150 C 1823.170 563.420, 1817.831 565, 1808.532 565 C 1800.001 565, 1800 565, 1800 567.611 L 1800 570.221 1810.750 569.837 C 1819.102 569.538, 1822.221 569.021, 1824.734 567.520 C 1830.531 564.056, 1831 561.740, 1831 536.599 C 1831 514.667, 1830.941 514, 1829 514 C 1827.357 514, 1826.999 514.669, 1826.993 517.750 L 1826.987 521.500 1825.012 518.500 C 1821.137 512.611, 1813.226 510.456, 1806.396 513.429 M 1855.450 513.351 C 1848.698 516.415, 1844.978 523.800, 1845.049 534 C 1845.143 547.438, 1851.412 554.370, 1863.373 554.261 C 1871.482 554.187, 1877.150 549.720, 1878.613 542.250 C 1879.198 539.268, 1879.040 539, 1876.704 539 C 1874.694 539, 1874.022 539.625, 1873.506 541.973 C 1873.147 543.608, 1871.502 546.083, 1869.850 547.473 C 1863.443 552.864, 1853.341 549.489, 1851.035 541.186 C 1848.948 533.674, 1848.337 534, 1864.500 534 L 1879 534 1879 529.712 C 1879 524.558, 1875.576 517.401, 1871.791 514.644 C 1868.363 512.147, 1859.628 511.456, 1855.450 513.351 M 1982.989 514.250 C 1976.658 517.462, 1973.667 523.607, 1973.667 533.401 C 1973.667 547.094, 1979.665 554.333, 1991.010 554.333 C 1999.929 554.333, 2005.465 550.083, 2007.400 541.750 C 2007.984 539.234, 2007.791 539, 2005.130 539 C 2002.606 539, 2002.137 539.456, 2001.574 542.457 C 2000.720 547.011, 1996.853 550, 1991.815 550 C 1984.088 550, 1979 544.852, 1979 537.032 L 1979 534 1993.629 534 L 2008.258 534 2007.563 528.750 C 2005.697 514.639, 1994.844 508.235, 1982.989 514.250 M 2031.020 514.284 C 2029.656 514.975, 2027.975 516.656, 2027.284 518.020 L 2026.029 520.500 2026.015 517.250 C 2026.002 514.447, 2025.654 514, 2023.479 514 L 2020.958 514 2021.229 533.750 L 2021.500 553.500 2024 553.500 L 2026.500 553.500 2027 539 C 2027.319 529.740, 2027.974 523.670, 2028.811 522.202 C 2030.244 519.689, 2033.763 518, 2037.565 518 C 2039.496 518, 2040 517.482, 2040 515.500 C 2040 513.343, 2039.554 513.002, 2036.750 513.015 C 2034.963 513.023, 2032.384 513.594, 2031.020 514.284 M 1287 530.600 L 1287 547.200 1290.400 550.600 C 1293.467 553.667, 1294.356 554, 1299.466 554 C 1305.892 554, 1308.530 552.960, 1311.745 549.156 L 1313.990 546.500 1313.995 550.250 C 1313.999 553.332, 1314.356 554, 1316 554 C 1317.933 554, 1318 553.333, 1318 534 L 1318 514 1315.500 514 L 1313 514 1313 528.484 C 1313 542.947, 1312.996 542.973, 1310.191 546.113 C 1307.917 548.657, 1306.405 549.351, 1302.265 549.749 C 1297.753 550.182, 1296.845 549.936, 1294.575 547.666 C 1292.029 545.120, 1292 544.914, 1292 529.545 L 1292 514 1289.500 514 L 1287 514 1287 530.600 M 1379.229 533.750 C 1379.498 553.377, 1379.514 553.502, 1381.750 553.820 L 1384 554.139 1384 534.070 L 1384 514 1381.479 514 L 1378.958 514 1379.229 533.750 M 1576.229 533.750 C 1576.498 553.377, 1576.514 553.502, 1578.750 553.820 L 1581 554.139 1581 534.070 L 1581 514 1578.479 514 L 1575.958 514 1576.229 533.750 M 1205.035 517.306 C 1201.163 518.640, 1197 523.998, 1197 527.648 C 1197 529.987, 1197.067 530, 1209.019 530 L 1221.038 530 1220.379 527.250 C 1219.137 522.071, 1216.866 518.842, 1213.466 517.421 C 1209.485 515.758, 1209.529 515.759, 1205.035 517.306 M 1251 517.285 C 1241.874 520.453, 1239.944 540.567, 1248.106 547.436 C 1253.747 552.183, 1262.266 550.175, 1265.512 543.333 C 1267.849 538.408, 1267.910 527.661, 1265.626 523.244 C 1262.675 517.538, 1256.969 515.213, 1251 517.285 M 1459.500 516.694 C 1449.396 519.221, 1446.611 538.765, 1455.140 547.294 C 1457.828 549.982, 1458.552 550.201, 1463.237 549.751 C 1467.196 549.371, 1468.907 548.647, 1470.657 546.612 C 1476.906 539.348, 1475.791 523.145, 1468.729 518.577 C 1465.994 516.808, 1462.166 516.027, 1459.500 516.694 M 1762 517.711 C 1757.261 520.133, 1755.003 524.978, 1755.002 532.730 C 1755 540.542, 1757.327 546.601, 1761.074 548.538 C 1767.209 551.711, 1774.589 549.493, 1777.365 543.643 C 1779.407 539.340, 1779.528 528.200, 1777.584 523.546 C 1774.973 517.299, 1767.950 514.669, 1762 517.711 M 1809 517.752 C 1804.138 520.180, 1802.003 524.920, 1802.002 533.290 C 1801.999 544.454, 1806.118 550, 1814.412 550 C 1821.382 550, 1826.016 543.302, 1825.978 533.282 C 1825.948 525.352, 1823.148 519.378, 1818.564 517.462 C 1814.108 515.600, 1813.254 515.626, 1809 517.752 M 1858.071 517.752 C 1854.215 519.718, 1851.496 523.165, 1850.579 527.250 L 1849.962 530 1861.981 530 C 1873.522 530, 1874 529.917, 1874 527.901 C 1874 523.921, 1870.770 518.802, 1867.360 517.377 C 1863.120 515.605, 1862.208 515.642, 1858.071 517.752 M 1987.094 517.285 C 1983.112 518.705, 1980.281 522.181, 1979.387 526.750 L 1978.750 530 1990.894 530 L 2003.038 530 2002.373 527.250 C 2001.112 522.041, 2000.083 520.100, 1997.795 518.620 C 1994.318 516.371, 1990.864 515.940, 1987.094 517.285" stroke="none" fill="#fbfbfb" fill-rule="evenodd"/></svg>