<?xml version="1.0" encoding="UTF-8"?><svg xmlns="http://www.w3.org/2000/svg" viewBox="0 0 2219.87 631.99"><defs><style>.cls-1,.cls-2,.cls-3{fill:#303131;}.cls-1,.cls-3{font-family:Wasa-Bold, Wasa;font-size:190px;}.cls-4{fill:#f7f7f7;}.cls-5{fill:#fff;}.cls-6{fill:#2e5040;}.cls-7{letter-spacing:.03em;}.cls-8{letter-spacing:-.1em;}.cls-3{letter-spacing:.03em;}</style></defs><g id="ADD_FLAG_HERE"><g><path class="cls-5" d="M1780.15,238.83V68.96c-29.28,16.96-49,48.64-49,84.93s19.72,67.97,49,84.93Z"/><path class="cls-6" d="M1829.15,55.89c-17.86,0-34.58,4.8-49,13.14V238.75c14.42,8.35,31.14,13.15,49,13.15,54.12,0,98-43.88,98-98s-43.88-98-98-98Z"/><path class="cls-5" d="M1848.75,173.91c-19.84,0-35.93-15.75-35.93-35.17,0-9.31,3.73-17.75,9.76-24.04-13.56,6.94-22.82,20.82-22.82,36.83,0,22.96,19.01,41.57,42.47,41.57s42.47-18.61,42.47-41.57c0-2.26-.23-4.45-.59-6.61-2.99,16.47-17.66,28.99-35.35,28.99Z"/><polygon class="cls-5" points="1855.28 114.29 1863.35 108.16 1860.3 118.13 1868.35 124.31 1858.38 124.34 1855.28 134.29 1852.17 124.34 1842.21 124.31 1850.26 118.13 1847.21 108.16 1855.28 114.29"/></g></g><g id="TEXT"><text class="cls-1" transform="translate(497.52 437.37)"><tspan class="cls-8" x="0" y="0">T</tspan><tspan class="cls-7" x="102.22" y="0">abahiNaqsha</tspan></text><text class="cls-3" transform="translate(1890.16 437.2)"><tspan x="0" y="0">pk</tspan></text><g><path class="cls-2" d="M1180.75,553.41h-4.96c-1.2-4.32-2.24-12.96-2.96-17.68-.72-4.96-4.24-7.04-10.4-7.04h-17.04v24.72h-4.56v-55.52h20.56c11.12,0,17.68,4.08,17.68,14.4,0,7.28-3.76,12.24-10.88,14.16,6.32,.72,8.48,3.68,9.52,10.08,.72,4.8,1.68,12.32,3.04,16.88Zm-35.36-51.44v22.72h14.4c8.56,0,14.64-3.36,14.64-11.76,0-8.88-6.08-10.96-14.08-10.96h-14.96Z"/><path class="cls-2" d="M1225.55,534.13h-29.44c.16,8.24,3.12,16.32,12.88,16.32,8.24,0,10.96-5.12,11.6-10.96h4.72c-1.12,9.12-6.16,14.8-16.32,14.8-12,0-17.36-8.72-17.36-20.96s6.08-21.04,17.84-21.04c10.4,0,15.84,7.68,16.08,20.72v1.12Zm-29.28-3.84h24.72c-.64-8.64-3.92-14.16-11.68-14.16-8.8,0-12.32,6.48-13.04,14.16Z"/><path class="cls-2" d="M1271.87,497.09v56.32h-3.6l-.72-8.48c-2.16,5.68-6.4,9.36-13.92,9.36-9.44,0-15.6-8.96-15.6-20.96s6.24-21.04,15.6-21.04c7.28,0,11.52,3.44,13.68,8.88v-24.08h4.56Zm-4.16,39.36l.16-3.12-.16-3.28c-.72-7.2-4.16-13.92-12.48-13.92-9.76,0-12.64,8.96-12.64,17.2s2.88,17.12,12.64,17.12c8.48,0,11.76-6.88,12.48-14Z"/><path class="cls-2" d="M1318.11,513.89v39.52h-3.68l-.8-8.88c-1.84,6.48-6.96,9.68-13.12,9.68-9.44,0-13.68-4.88-13.68-14.08v-26.24h4.56v25.68c0,7.52,3.12,10.8,9.84,10.8,7.2,0,12.32-4.8,12.32-12.32v-24.16h4.56Z"/><path class="cls-2" d="M1332.11,533.33c0-12.32,5.04-21.04,16.96-21.04,10,0,15.44,6.24,16.16,15.76h-4.64c-.4-6.56-3.44-12-11.36-12-9.92,0-12.64,8.48-12.64,17.28s2.64,17.12,12.64,17.12c8.24,0,11.28-5.44,11.76-12.16h4.64c-.8,10-6.48,15.92-16.32,15.92-12.16,0-17.2-8.64-17.2-20.88Z"/><path class="cls-2" d="M1379.55,497.89h4.64v9.84h-4.64v-9.84Zm0,16h4.56v39.52h-4.56v-39.52Z"/><path class="cls-2" d="M1431.39,526.61v26.8h-4.56v-26.24c0-7.52-3.28-11.04-10.24-11.04-7.52,0-12.24,5.52-12.32,12.72v24.56h-4.56v-39.52h4l.48,8.08c1.28-5.28,6.08-9.68,14-9.68,9.28,0,13.2,5.52,13.2,14.32Z"/><path class="cls-2" d="M1479.63,513.89v39.76c0,10.24-4.96,16.08-17.68,16.08h-12.96v-4.56h13.12c8.24,0,12.96-2.32,12.96-12.56v-7.6l.08-1.36c-1.92,6.48-6.32,10.64-14.32,10.64-9.44,0-15.6-8.96-15.6-20.96s6.16-21.04,15.6-21.04c8.08,0,12.4,4.32,14.32,10.88l.48-9.28h4Zm-4.56,19.44c0-8.24-3.04-17.2-12.64-17.2s-12.64,8.96-12.64,17.2,2.88,17.12,12.64,17.12,12.64-8.96,12.64-17.12Z"/><path class="cls-2" d="M1562.43,553.41h-4.96c-1.2-4.32-2.24-12.96-2.96-17.68-.72-4.96-4.24-7.04-10.4-7.04h-17.04v24.72h-4.56v-55.52h20.56c11.12,0,17.68,4.08,17.68,14.4,0,7.28-3.76,12.24-10.88,14.16,6.32,.72,8.48,3.68,9.52,10.08,.72,4.8,1.68,12.32,3.04,16.88Zm-35.36-51.44v22.72h14.4c8.56,0,14.64-3.36,14.64-11.76,0-8.88-6.08-10.96-14.08-10.96h-14.96Z"/><path class="cls-2" d="M1576.67,497.89h4.64v9.84h-4.64v-9.84Zm0,16h4.56v39.52h-4.56v-39.52Z"/><path class="cls-2" d="M1610.43,554.29c-8.88,0-14.96-4.16-15.76-13.92h4.4c.48,5.84,3.92,10.16,11.36,10.16s10.88-3.04,10.8-8c-.08-4.56-3.68-6.08-11.04-7.44-10.72-2-14.72-5.04-14.72-11.84s5.04-10.96,15.04-10.96c8.88,0,14.16,4.8,14.56,12.8h-4.24c-.48-6-3.84-9.12-10.48-9.12-6.16,0-10.48,1.84-10.48,6.96,0,4.8,3.6,6.16,10.64,7.6,10.96,2.24,14.88,4.64,15.04,11.6,.08,8.56-6.64,12.16-15.12,12.16Z"/><path class="cls-2" d="M1649.79,533.73l-5.76,5.52v14.16h-4.56v-56.32h4.56v36.64l20.56-19.84h5.76l-17.28,16.64,17.6,22.88h-5.6l-15.28-19.68Z"/><path class="cls-2" d="M1750.91,497.89v4.08h-19.68v51.44h-4.56v-51.44h-19.6v-4.08h43.84Z"/><path class="cls-2" d="M1784.26,533.33c0,12.24-5.44,20.88-17.2,20.88s-17.12-8.64-17.12-20.88,5.36-21.04,17.12-21.04,17.2,8.72,17.2,21.04Zm-4.64,0c0-8.56-2.56-17.28-12.56-17.28s-12.56,8.72-12.56,17.28,2.56,17.12,12.56,17.12,12.56-8.64,12.56-17.12Z"/><path class="cls-2" d="M1831.15,513.89v39.76c0,10.24-4.96,16.08-17.68,16.08h-12.96v-4.56h13.12c8.24,0,12.96-2.32,12.96-12.56v-7.6l.08-1.36c-1.92,6.48-6.32,10.64-14.32,10.64-9.44,0-15.6-8.96-15.6-20.96s6.16-21.04,15.6-21.04c8.08,0,12.4,4.32,14.32,10.88l.48-9.28h4Zm-4.56,19.44c0-8.24-3.04-17.2-12.64-17.2s-12.64,8.96-12.64,17.2,2.88,17.12,12.64,17.12,12.64-8.96,12.64-17.12Z"/><path class="cls-2" d="M1879.14,534.13h-29.44c.16,8.24,3.12,16.32,12.88,16.32,8.24,0,10.96-5.12,11.6-10.96h4.72c-1.12,9.12-6.16,14.8-16.32,14.8-12,0-17.36-8.72-17.36-20.96s6.08-21.04,17.84-21.04c10.4,0,15.84,7.68,16.08,20.72v1.12Zm-29.28-3.84h24.72c-.64-8.64-3.92-14.16-11.68-14.16-8.8,0-12.32,6.48-13.04,14.16Z"/><path class="cls-2" d="M1902.34,544.29c0,3.6,1.44,5.28,5.52,5.28h5.92v3.84h-7.04c-6,0-8.96-2.72-8.96-8.32v-27.36h-9.2v-3.84h9.28l.96-10.88h3.52v10.88h11.44v3.84h-11.44v26.56Z"/><path class="cls-2" d="M1959.86,526.61v26.8h-4.56v-26.24c0-7.52-3.28-11.04-10.24-11.04-7.52,0-12.24,5.52-12.32,12.72v24.56h-4.56v-56.32h4.56v24.48c1.44-5.12,6.16-9.28,13.92-9.28,9.28,0,13.2,5.52,13.2,14.32Z"/><path class="cls-2" d="M2007.62,534.13h-29.44c.16,8.24,3.12,16.32,12.88,16.32,8.24,0,10.96-5.12,11.6-10.96h4.72c-1.12,9.12-6.16,14.8-16.32,14.8-12,0-17.36-8.72-17.36-20.96s6.08-21.04,17.84-21.04c10.4,0,15.84,7.68,16.08,20.72v1.12Zm-29.28-3.84h24.72c-.64-8.64-3.92-14.16-11.68-14.16-8.8,0-12.32,6.48-13.04,14.16Z"/><path class="cls-2" d="M2039.3,513.41v4.48c-.96-.08-1.92-.08-2.96-.08-6,0-10,4.64-10.08,12.88v22.72h-4.56v-39.52h4l.4,9.04c.88-5.68,3.2-9.68,10.96-9.68,.72,0,1.44,.08,2.24,.16Z"/></g></g><g id="PIN"><g><g><path class="cls-2" d="M1851.94,412.58c0,12.59-10.2,22.81-22.8,22.81s-22.8-10.21-22.8-22.81,10.2-22.78,22.8-22.78,22.8,10.19,22.8,22.78Z"/><path class="cls-2" d="M1829.13,38.15c-65.7,0-118.96,53.27-118.96,118.98,0,26.79,8.85,51.51,23.78,71.4h0l94.76,126.27,95.61-126.26c14.94-19.89,23.79-44.61,23.79-71.4,0-65.71-53.26-118.98-119-118.98Zm0,219.35c-57.2,0-103.58-46.39-103.58-103.6s46.38-103.6,103.58-103.6,103.62,46.39,103.62,103.6-46.37,103.6-103.62,103.6Z"/></g><path class="cls-4" d="M1829.13,56.77c53.56,0,97.14,43.57,97.14,97.13s-43.58,97.13-97.14,97.13-97.11-43.57-97.11-97.13,43.56-97.13,97.11-97.13m0-6.47c-57.2,0-103.58,46.39-103.58,103.6s46.38,103.6,103.58,103.6,103.62-46.39,103.62-103.6-46.37-103.6-103.62-103.6h0Z"/></g></g></svg>