<?xml version="1.0" encoding="UTF-8"?>
<svg id="Layer_1" data-name="Layer 1" xmlns="http://www.w3.org/2000/svg" viewBox="0 0 1174.58 327.49">
  <defs>
    <style>
      .cls-1, .cls-2 {
        font-family: Wasa-Bold, Wasa;
        font-size: 138.06px;
        font-weight: 700;
      }

      .cls-1, .cls-2, .cls-3 {
        fill: #2b2d2d;
      }

      .cls-1, .cls-4 {
        letter-spacing: .03em;
      }

      .cls-5 {
        letter-spacing: -.1em;
      }

      .cls-6 {
        fill: #f6f6f6;
      }

      .cls-6, .cls-3, .cls-7, .cls-8 {
        stroke-width: 0px;
      }

      .cls-7 {
        fill: #105741;
      }

      .cls-8 {
        fill: #fff;
      }
    </style>
  </defs>
  <g>
    <text class="cls-2" transform="translate(0 291.6)"><tspan class="cls-5" x="0" y="0">T</tspan><tspan class="cls-4" x="74.28" y="0">abahiNaqsha</tspan></text>
    <text class="cls-1" transform="translate(1011.95 291.47)"><tspan x="0" y="0">pk</tspan></text>
  </g>
  <g>
    <g>
      <g>
        <path class="cls-3" d="m984.33,274.54c0,9.23-7.48,16.72-16.71,16.72s-16.71-7.49-16.71-16.72,7.48-16.7,16.71-16.7,16.71,7.47,16.71,16.7Z"/>
        <path class="cls-3" d="m967.6,0c-48.17,0-87.22,39.06-87.22,87.24,0,19.64,6.49,37.77,17.44,52.35h0s69.48,92.58,69.48,92.58l70.1-92.58c10.95-14.58,17.44-32.71,17.44-52.35,0-48.18-39.05-87.24-87.25-87.24Zm0,160.83c-41.94,0-75.95-34.01-75.95-75.96s34.01-75.96,75.95-75.96,75.97,34.02,75.97,75.96-34,75.96-75.97,75.96Z"/>
      </g>
      <path class="cls-6" d="m967.6,13.65c39.27,0,71.22,31.95,71.22,71.22s-31.95,71.21-71.22,71.21-71.2-31.95-71.2-71.21,31.94-71.22,71.2-71.22m0-4.75c-41.94,0-75.95,34.02-75.95,75.96s34.01,75.96,75.95,75.96,75.97-34.01,75.97-75.96-34-75.96-75.97-75.96h0Z"/>
    </g>
    <g>
      <g>
        <path class="cls-8" d="m931.92,146.73V23c-21.33,12.35-35.69,35.43-35.69,61.87s14.36,49.51,35.69,61.87Z"/>
        <path class="cls-7" d="m967.61,13.48c-13.01,0-25.19,3.5-35.69,9.57v123.62c10.5,6.08,22.69,9.58,35.69,9.58,39.42,0,71.38-31.96,71.38-71.38s-31.96-71.38-71.38-71.38Z"/>
      </g>
      <g>
        <path class="cls-8" d="m1004.49,97.8c-11.28,10.02-28.54,9.01-38.56-2.27-10.02-11.28-9.01-28.54,2.27-38.56.47-.42.96-.82,1.45-1.2-12.02,3.84-20.72,15.1-20.72,28.39,0,16.46,13.34,29.8,29.8,29.8,12.05,0,22.43-7.16,27.13-17.45-.44.45-.89.88-1.36,1.3Z"/>
        <polygon class="cls-8" points="995.09 74.44 1002.14 75.98 997.35 70.59 1001 64.36 994.38 67.26 989.59 61.86 990.3 69.04 983.69 71.94 990.74 73.48 991.45 80.66 995.09 74.44"/>
      </g>
    </g>
  </g>
</svg>