<svg width="118" height="41" viewBox="0 0 118 41" fill="none" xmlns="http://www.w3.org/2000/svg">
  <path d="M9.627 34.441H4.43397L3.44158 37.4361H0.959961L5.17858 25.0293H8.88239L13.1536 37.4361H10.6194L9.627 34.441ZM8.91834 32.3137L7.04011 26.6058L5.14392 32.3137H8.91962H8.91834Z" fill="#2B2D2D"/>
  <path d="M22.6368 31.4986V37.4362H20.8292L20.2977 35.1677C19.9613 36.7802 18.8971 37.5248 17.4797 37.5248C15.8133 37.5248 14.4307 36.621 14.4307 34.7954C14.4307 33.165 15.8133 32.084 17.8341 32.084H20.2977V31.8183C20.2977 30.772 19.7842 30.1698 18.5787 30.1698C17.3732 30.1698 16.8057 30.772 16.8057 31.4639H14.4666C14.4666 29.5138 15.9379 28.2197 18.5787 28.2197C21.0064 28.2197 22.6381 29.2121 22.6381 31.4986H22.6368ZM20.2977 33.6079H18.295C17.214 33.6079 16.7711 34.0688 16.7711 34.6183C16.7711 35.1677 17.0548 35.7532 18.2064 35.7532C19.3579 35.7532 20.2977 34.8314 20.2977 33.6079Z" fill="#2B2D2D"/>
  <path d="M28.6809 28.0244V28.5738H31.5694V30.5586H28.6809V37.6132H26.3417V30.5586H24.0732V28.5738H26.3417V27.4929C26.3417 26.0216 27.0504 24.8521 29.0005 24.8521H31.5707V26.8368H29.6745C28.9119 26.8368 28.6821 27.2091 28.6821 28.0244H28.6809Z" fill="#2B2D2D"/>
  <path d="M40.8585 31.4986V37.4362H39.0509L38.5194 35.1677C38.183 36.7802 37.1187 37.5248 35.7014 37.5248C34.035 37.5248 32.6523 36.621 32.6523 34.7954C32.6523 33.165 34.035 32.084 36.0557 32.084H38.5194V31.8183C38.5194 30.772 38.0059 30.1698 36.8004 30.1698C35.5948 30.1698 35.0274 30.772 35.0274 31.4639H32.6883C32.6883 29.5138 34.1595 28.2197 36.8004 28.2197C39.228 28.2197 40.8598 29.2121 40.8598 31.4986H40.8585ZM38.5194 33.6079H36.5166C35.4357 33.6079 34.9927 34.0688 34.9927 34.6183C34.9927 35.1677 35.2765 35.7532 36.428 35.7532C37.5796 35.7532 38.5194 34.8314 38.5194 33.6079Z" fill="#2B2D2D"/>
  <path d="M46.6008 34.3345C46.6008 35.1497 46.8306 35.4514 47.5932 35.4514H49.135V37.4362H46.9192C44.969 37.4362 44.2604 36.2666 44.2604 34.7954V30.5588H42.2217V28.574H44.349L44.8805 26.2695H46.5995V28.574H49.1337V30.5588H46.5995V34.3345H46.6008Z" fill="#2B2D2D"/>
  <path d="M53.5129 25.0293V37.4361H51.1738V25.0293H53.5129Z" fill="#2B2D2D"/>
  <path d="M64.29 31.4986V37.4362H61.9508V31.817C61.9508 31.0018 61.5785 30.1686 60.1432 30.1686C58.7079 30.1865 58.1584 31.0018 58.1584 31.817V37.4362H55.8193V28.5741H57.8041L58.0878 30.7193C58.1405 29.673 59.0802 28.2197 61.1536 28.2197C63.227 28.2197 64.2912 29.3007 64.2912 31.4986H64.29Z" fill="#2B2D2D"/>
  <path d="M70.3342 28.0244V28.5738H73.2228V30.5586H70.3342V37.6132H67.9951V30.5586H65.7266V28.5738H67.9951V27.4929C67.9951 26.0216 68.7037 24.8521 70.6538 24.8521H73.2241V26.8368H71.3279C70.5653 26.8368 70.3355 27.2091 70.3355 28.0244H70.3342Z" fill="#2B2D2D"/>
  <path d="M83.326 32.9173C83.326 35.7532 81.4477 37.6315 78.789 37.6315C76.1302 37.6315 74.252 35.7532 74.252 32.9173C74.252 30.0813 76.1302 28.2031 78.789 28.2031C81.4477 28.2031 83.326 30.0813 83.326 32.9173ZM80.9509 32.9173C80.9509 31.2509 80.1703 30.152 78.789 30.152C77.4076 30.152 76.627 31.2509 76.627 32.9173C76.627 34.5837 77.4063 35.6826 78.789 35.6826C80.1716 35.6826 80.9509 34.5837 80.9509 32.9173Z" fill="#2B2D2D"/>
  <path d="M106.316 32.9007C106.316 35.7366 104.792 37.6149 102.665 37.6149C101.105 37.6149 100.308 36.729 99.9172 35.5595V41.0003H97.5781V28.5575H99.5629L99.8287 30.5256C100.183 29.2136 100.98 28.1865 102.665 28.1865C104.792 28.1865 106.316 30.0647 106.316 32.9007ZM103.941 32.9007C103.941 31.2343 103.16 30.1354 101.779 30.1354C100.397 30.1354 99.6168 31.2343 99.6168 32.9007C99.6168 34.5671 100.397 35.666 101.779 35.666C103.16 35.666 103.941 34.5671 103.941 32.9007Z" fill="#2B2D2D"/>
  <path d="M111.544 33.9995L110.605 34.9572V37.4209H108.266V24.8369H110.605V32.2638L114.115 28.5587H116.915L113.086 32.441L117.039 37.4209H114.256L111.544 33.9995Z" fill="#2B2D2D"/>
  <path d="M93.147 35.246C93.147 36.431 92.1867 37.3926 91.0017 37.3926C89.8167 37.3926 88.8564 36.431 88.8564 35.246C88.8564 34.0611 89.8167 33.1021 91.0017 33.1021C92.1867 33.1021 93.147 34.0611 93.147 35.246Z" fill="#2B2D2D"/>
  <path d="M90.9992 0C84.8151 0 79.8018 5.01459 79.8018 11.2C79.8018 13.7214 80.635 16.049 82.0407 17.9208L90.9607 29.8064L99.9602 17.9208C101.366 16.049 102.199 13.7214 102.199 11.2C102.199 5.01459 97.1859 0 90.9979 0H90.9992ZM90.9992 20.6476C85.6149 20.6476 81.2486 16.2814 81.2486 10.8957C81.2486 5.51014 85.6149 1.14388 90.9992 1.14388C96.3835 1.14388 100.752 5.51142 100.752 10.8957C100.752 16.2801 96.3874 20.6476 90.9992 20.6476Z" fill="#2B2D2D"/>
  <path d="M90.9996 1.7519C96.0412 1.7519 100.143 5.85369 100.143 10.8952C100.143 15.9368 96.0412 20.0373 90.9996 20.0373C85.9581 20.0373 81.8588 15.9355 81.8588 10.8952C81.8588 5.85498 85.9593 1.7519 90.9996 1.7519ZM90.9996 1.14209C85.6153 1.14209 81.249 5.50963 81.249 10.894C81.249 16.2783 85.6153 20.6458 90.9996 20.6458C96.3839 20.6458 100.753 16.2796 100.753 10.894C100.753 5.50835 96.3878 1.14209 90.9996 1.14209Z" fill="#F6F6F6"/>
  <path d="M86.4189 18.8373V2.95264C83.6805 4.53815 81.8369 7.5012 81.8369 10.8956C81.8369 14.29 83.6805 17.2518 86.4189 18.8386V18.8373Z" fill="white"/>
  <path d="M91.0009 1.73096C89.3306 1.73096 87.767 2.18029 86.4189 2.95957V18.8301C87.767 19.6107 89.3319 20.06 91.0009 20.06C96.0617 20.06 100.165 15.9569 100.165 10.8961C100.165 5.83532 96.0617 1.73224 91.0009 1.73224V1.73096Z" fill="#105741"/>
  <path d="M95.7354 12.5555C94.2873 13.8419 92.0714 13.7123 90.785 12.2641C89.4986 10.816 89.6283 8.60011 91.0765 7.31373C91.1368 7.25981 91.1997 7.20845 91.2626 7.15967C89.7195 7.65265 88.6025 9.09823 88.6025 10.8044C88.6025 12.9176 90.3152 14.6302 92.4283 14.6302C93.9753 14.6302 95.3079 13.711 95.9113 12.3899C95.8548 12.4477 95.797 12.5029 95.7367 12.5568H95.7354V12.5555Z" fill="white"/>
  <path d="M94.528 9.55645L95.4331 9.75415L94.8181 9.06218L95.2867 8.26236L94.4369 8.63467L93.8219 7.94141L93.9131 8.86319L93.0645 9.23549L93.9695 9.4332L94.0607 10.355L94.528 9.55645Z" fill="white"/>
</svg>
