<svg width="23" height="34" viewBox="0 0 23 34" fill="none" xmlns="http://www.w3.org/2000/svg">
  <path d="M22.6594 8.03338C22.5535 7.95081 22.4301 7.89346 22.2986 7.86568C22.1672 7.8379 22.0312 7.84042 21.9009 7.87304L15.1413 9.56266L8.3574 6.17016C8.16839 6.07588 7.95188 6.05234 7.74702 6.10381L0.670096 7.87304C0.478719 7.92088 0.308822 8.03131 0.187408 8.18678C0.065994 8.34226 2.98676e-05 8.53385 0 8.73112V24.6542C2.03514e-05 24.7886 0.0306731 24.9213 0.0896301 25.0421C0.148587 25.1629 0.234298 25.2686 0.340252 25.3514C0.446207 25.4341 0.569618 25.4915 0.701113 25.5194C0.832608 25.5473 0.968728 25.5449 1.09913 25.5123L7.8587 23.8227L14.6426 27.2152C14.7658 27.2759 14.9012 27.3076 15.0385 27.308C15.1108 27.308 15.1828 27.2991 15.253 27.2815L22.3299 25.5123C22.5213 25.4644 22.6912 25.354 22.8126 25.1985C22.934 25.0431 23 24.8515 23 24.6542V8.73112C23 8.59657 22.9694 8.4638 22.9104 8.34289C22.8513 8.22198 22.7655 8.11612 22.6594 8.03338ZM7.96154 22.0003C7.88922 22.0004 7.81717 22.0093 7.74702 22.0269L1.76923 23.5208V9.42222L7.8587 7.89958L7.96154 7.95044V22.0003ZM21.2308 23.9631L15.1413 25.4857L15.0385 25.4349V11.385C15.1107 11.3853 15.1828 11.3767 15.253 11.3595L21.2308 9.86453V23.9631Z" fill="#2B7054"/>
  <path d="M22.6594 7.95623C22.5535 7.87366 22.4301 7.81631 22.2986 7.78853C22.1672 7.76075 22.0312 7.76327 21.9009 7.79589L15.1413 9.48551L8.3574 6.09301C8.16839 5.99873 7.95188 5.9752 7.74702 6.02666L0.670096 7.79589C0.478719 7.84373 0.308822 7.95416 0.187408 8.10963C0.065994 8.26511 2.98676e-05 8.4567 0 8.65397V24.577C2.03514e-05 24.7115 0.0306731 24.8441 0.0896301 24.9649C0.148587 25.0857 0.234298 25.1915 0.340252 25.2742C0.446207 25.3569 0.569618 25.4144 0.701113 25.4423C0.832608 25.4702 0.968728 25.4677 1.09913 25.4351L7.8587 23.7455L14.6426 27.138C14.7658 27.1987 14.9012 27.2305 15.0385 27.2309C15.1108 27.2308 15.1828 27.2219 15.253 27.2044L22.3299 25.4351C22.5213 25.3873 22.6912 25.2769 22.8126 25.1214C22.934 24.9659 23 24.7743 23 24.577V8.65397C23 8.51943 22.9694 8.38665 22.9104 8.26574C22.8513 8.14483 22.7655 8.03897 22.6594 7.95623ZM7.96154 21.9232C7.88922 21.9232 7.81717 21.9322 7.74702 21.9497L1.76923 23.4436V9.34508L7.8587 7.82243L7.96154 7.8733V21.9232ZM21.2308 23.8859L15.1413 25.4086L15.0385 25.3577V11.3078C15.1107 11.3081 15.1828 11.2996 15.253 11.2824L21.2308 9.78738V23.8859Z" fill="#2B7054"/>
  <path d="M1 24V9L8.5 7V22C8.5 22.4 3.5 23.5 1 24Z" fill="#2B7054" stroke="#2B7054"/>
  <path d="M9 22V8L14 10.5V24.5L9 22Z" fill="white" stroke="white"/>
  <path d="M15 26V11L22.5 9V24C22.5 24.4 17.5 25.5 15 26Z" fill="#2B7054" stroke="#2B7054"/>
</svg>