
<svg width="18" height="19" viewBox="0 0 18 19" fill="none" xmlns="http://www.w3.org/2000/svg">
  <circle cx="8.82291" cy="9.49967" r="8.82291" fill="#2B7054"/>
  <path d="M8.64969 6.30921C8.43857 6.30921 8.25993 6.23892 8.11377 6.09833C7.96761 5.95774 7.89453 5.7859 7.89453 5.58283C7.89453 5.37975 7.96761 5.20792 8.11377 5.06733C8.25993 4.92674 8.43857 4.85645 8.64969 4.85645C8.85269 4.85645 9.02321 4.92674 9.16125 5.06733C9.30742 5.20792 9.3805 5.37975 9.3805 5.58283C9.3805 5.7859 9.30742 5.95774 9.16125 6.09833C9.02321 6.23892 8.85269 6.30921 8.64969 6.30921ZM9.18561 7.35193V13.7722H8.07723V7.35193H9.18561Z" fill="#F7F7F7"/>
</svg>