<svg width="20" height="34" viewBox="0 0 20 34" fill="none" xmlns="http://www.w3.org/2000/svg">
  <path d="M9.99915 6.40527C5.58065 6.40527 2 9.98761 2 14.4061C2 16.2082 2.59509 17.8705 3.59983 19.2073L9.9705 27.697L16.4002 19.2073C17.4049 17.8705 18 16.2082 18 14.4061C18 9.98761 14.4193 6.40527 9.99915 6.40527ZM9.99915 21.1544C6.15214 21.1544 3.03508 18.0357 3.03508 14.1886C3.03508 10.3416 6.15383 7.22289 9.99915 7.22289C13.8445 7.22289 16.9666 10.3416 16.9666 14.1886C16.9666 18.0357 13.8479 21.1544 9.99915 21.1544Z" fill="#2B7054"/>
  <ellipse cx="10.0435" cy="14.6241" rx="7.34428" ry="7.51914" fill="#2B7054"/>
  <circle cx="10" cy="15" r="4" fill="white"/>
</svg>