<svg width="73" height="74" viewBox="0 0 73 74" fill="none" xmlns="http://www.w3.org/2000/svg">
<g filter="url(#filter0_d_723_5538)">
<circle cx="36.5" cy="33.4922" r="32.5078" fill="#FF7300"/>
<path d="M36.5271 54.3564C45.3555 54.3564 52.5098 47.1988 52.5098 38.3704C52.5098 34.7697 51.3208 31.4485 49.3132 28.7774L36.5844 11.8146L23.7376 28.7774C21.7301 31.4485 20.541 34.7697 20.541 38.3704C20.541 47.1988 27.6954 54.3564 36.5271 54.3564ZM36.5271 24.887C44.2136 24.887 50.4416 31.1184 50.4416 38.8049C50.4416 46.4914 44.2102 52.7228 36.5271 52.7228C28.844 52.7228 22.6058 46.4914 22.6058 38.8049C22.6058 31.1184 28.8372 24.887 36.5271 24.887Z" fill="white"/>
<circle cx="36.3388" cy="38.9911" r="14.5557" transform="rotate(-180 36.3388 38.9911)" fill="white"/>
</g>
<defs>
<filter id="filter0_d_723_5538" x="-0.0078125" y="0.984375" width="73.0156" height="73.0156" filterUnits="userSpaceOnUse" color-interpolation-filters="sRGB">
<feFlood flood-opacity="0" result="BackgroundImageFix"/>
<feColorMatrix in="SourceAlpha" type="matrix" values="0 0 0 0 0 0 0 0 0 0 0 0 0 0 0 0 0 0 127 0" result="hardAlpha"/>
<feOffset dy="4"/>
<feGaussianBlur stdDeviation="2"/>
<feComposite in2="hardAlpha" operator="out"/>
<feColorMatrix type="matrix" values="0 0 0 0 0 0 0 0 0 0 0 0 0 0 0 0 0 0 0.25 0"/>
<feBlend mode="normal" in2="BackgroundImageFix" result="effect1_dropShadow_723_5538"/>
<feBlend mode="normal" in="SourceGraphic" in2="effect1_dropShadow_723_5538" result="shape"/>
</filter>
</defs>
</svg>
